<svg width="16" height="17" viewBox="0 0 16 17" fill="none" xmlns="http://www.w3.org/2000/svg">
<path d="M8 0.564636C12.4182 0.564636 16 4.09768 16 8.45579C16 12.8139 12.4182 16.3469 8 16.3469C3.58177 16.3469 0 12.8139 0 8.45579C0.00494671 4.09973 3.58385 0.569517 8 0.564636ZM7.71445 2.83964L4.93333 1.74304C4.61771 1.88394 4.31237 2.04628 4.01953 2.22892L4.01224 2.23342C3.72448 2.41323 3.44948 2.61218 3.18906 2.82885L3.16667 2.84811C3.04987 2.94624 2.93633 3.04783 2.82591 3.15264C2.81198 3.16612 2.79739 3.17897 2.78346 3.19271C2.66771 3.30419 2.5556 3.41914 2.44713 3.53743C2.43815 3.54745 2.42956 3.55798 2.42057 3.568C2.32539 3.67319 2.23385 3.78211 2.14505 3.89282C2.1237 3.91915 2.10234 3.94548 2.08164 3.97181C1.98529 4.09485 1.89206 4.22008 1.80404 4.34928L2.35846 6.67399L5.0862 7.57099L7.7138 5.49712L7.71445 2.83964ZM13.9186 3.97335C13.8979 3.94702 13.8768 3.92069 13.8555 3.89449C13.7677 3.78467 13.677 3.67756 13.5832 3.57301C13.573 3.56197 13.5637 3.55066 13.5536 3.53962C13.4458 3.42107 13.3342 3.30625 13.2186 3.19502C13.2053 3.18218 13.1921 3.16869 13.1781 3.15688C13.0686 3.05271 12.956 2.95176 12.8402 2.85415L12.8135 2.83206C12.5555 2.61693 12.2831 2.41926 11.9982 2.24022L11.9878 2.23367C11.6966 2.05142 11.3932 1.88933 11.0794 1.74831L8.28555 2.83964V5.49635L10.9133 7.56984L13.641 6.6745L14.1954 4.3498C14.1066 4.22085 14.0145 4.09588 13.9186 3.97335ZM14.24 12.4922C14.3184 12.3743 14.3934 12.2542 14.4648 12.1318L14.4822 12.1022C14.5533 11.9805 14.6206 11.8567 14.684 11.7309L14.6862 11.7269C14.8198 11.4624 14.9371 11.1901 15.0374 10.9115V10.9089C15.0848 10.7774 15.128 10.6427 15.168 10.5072L15.1824 10.4572C15.219 10.3299 15.2522 10.2012 15.2819 10.0711C15.2845 10.0584 15.2878 10.0464 15.2904 10.0338C15.3559 9.7399 15.4029 9.44244 15.4312 9.1428L13.8033 7.21586L11.0944 8.10644L10.3082 11.2082L11.6 12.9036L14.24 12.4922ZM6.22422 15.6086C6.35755 15.6412 6.4944 15.6693 6.63125 15.6946C6.65039 15.6983 6.66992 15.7014 6.68906 15.7049C6.8056 15.7254 6.92344 15.743 7.04154 15.7574C7.07305 15.7614 7.1043 15.7656 7.13568 15.7694C7.24531 15.782 7.35599 15.7915 7.46693 15.7993C7.50182 15.8016 7.53633 15.8051 7.57122 15.8073C7.71302 15.8159 7.85599 15.8209 8 15.8209C8.1319 15.8209 8.26302 15.8174 8.39336 15.8106C8.40911 15.8106 8.42422 15.808 8.43997 15.8069C8.55599 15.8003 8.67148 15.7917 8.78672 15.7807L8.8 15.7782C9.05247 15.7513 9.30352 15.7117 9.55195 15.6599L11.1293 13.2239L9.85781 11.5515H6.14219L4.84987 13.2349L6.22422 15.6086ZM0.707682 10.034C0.710416 10.0466 0.713541 10.0588 0.716275 10.0714C0.746093 10.2014 0.779296 10.3301 0.815755 10.4575L0.830077 10.5074C0.870181 10.6429 0.91328 10.7772 0.960807 10.9092V10.9118C1.06107 11.1903 1.17825 11.4626 1.31198 11.7272L1.31419 11.7312C1.37799 11.8571 1.44518 11.9809 1.51602 12.1025L1.53333 12.132C1.60443 12.2548 1.6793 12.3747 1.75781 12.4919L4.3888 12.9011L5.68958 11.2072L4.90378 8.10619L2.19492 7.21561L0.566926 9.14254C0.595181 9.44232 0.642187 9.74003 0.707682 10.034Z" fill="black"/>
</svg>
