<svg width="11" height="12" viewBox="0 0 11 12" fill="none" xmlns="http://www.w3.org/2000/svg">
<path d="M10.8869 6.65227C10.8463 6.55881 10.7517 6.49782 10.6467 6.49782H7.79825V0.249924C7.79825 0.11197 7.68179 0 7.5383 0H3.37924C3.23575 0 3.11929 0.11197 3.11929 0.249924V6.49785H0.259947C0.154939 6.49785 0.0603121 6.55883 0.0197613 6.6518C-0.0202777 6.74526 0.00155726 6.85273 0.0759085 6.92422L5.26173 11.9265C5.31059 11.9735 5.37663 12 5.44577 12C5.51491 12 5.58095 11.9735 5.62981 11.927L10.8307 6.92471C10.9051 6.8532 10.9274 6.74575 10.8869 6.65227Z" fill="#BC3636"/>
</svg>
