<svg width="18" height="15" viewBox="0 0 18 15" fill="none" xmlns="http://www.w3.org/2000/svg">
<path d="M17.9926 8.91504V8.90943L17.9892 8.91111C17.7041 8.59289 13.236 3.60187 11.1587 1.96195C9.16728 0.450555 5.53042 0.546525 2.1382 3.25727L1.66937 3.626C1.64263 3.64564 1.61475 3.6608 1.58915 3.68212C-0.373239 5.20867 -0.541086 8.22641 1.21419 10.4203C2.9689 12.6152 5.98275 13.1568 7.94456 11.6303C8.34569 11.3188 8.75023 10.624 9.00001 10.2076L13.0545 14.9494L17.9221 11.7784L17.992 8.93132L18 8.92402C17.9983 8.92177 17.9943 8.91729 17.9926 8.91504ZM16.9599 11.3828L14.5924 12.8094V12.1421L16.9599 10.716V11.3828ZM13.6667 11.3278L8.35991 4.94658C8.34569 4.92862 8.33431 4.90953 8.31952 4.89101C8.2831 4.84555 8.24327 4.80571 8.20572 4.76193L8.08396 4.61545L8.08169 4.61938C7.02738 3.45707 5.60211 2.83523 4.22519 2.82063C6.72014 1.5124 9.19289 1.35301 10.6933 2.53665C12.564 4.01269 16.5992 8.47447 17.3252 9.28209L13.6667 11.3278Z" fill="black"/>
</svg>
