<svg width="16" height="14" viewBox="0 0 16 14" fill="none" xmlns="http://www.w3.org/2000/svg">
<g clip-path="url(#clip0)">
<path d="M14.38 8.90586C14.385 8.85391 14.4 8.80469 14.4 8.75273C14.4 7.7875 13.6825 7.00273 12.8 7.00273C12.485 7.00273 12.195 7.10664 11.9475 7.27617C11.5075 6.21523 10.535 5.47148 9.4 5.47148C7.855 5.47148 6.6 6.84141 6.6 8.53398C6.6 8.61602 6.6175 8.69258 6.6225 8.77187C5.3825 8.87305 4.4 9.99414 4.4 11.3777C4.4 12.827 5.475 14.0027 6.8 14.0027H13.6C14.925 14.0027 16 12.827 16 11.3777C16 10.2266 15.32 9.26133 14.38 8.90586ZM3.62 8.28789C2.5275 7.09297 2.5275 5.15156 3.62 3.95938C4.7125 2.76445 6.4875 2.76445 7.58 3.95938C7.8225 4.22461 8.0025 4.53086 8.1375 4.85352C8.3825 4.75234 8.64 4.68945 8.905 4.64844L9.65 2.21758C9.75 1.89219 9.4675 1.58594 9.17 1.69258L6.975 2.49375L5.9375 0.229687C5.8 -0.0765625 5.4 -0.0765625 5.26 0.229687L4.225 2.49375L2.0275 1.69258C1.7325 1.58594 1.45 1.89492 1.5475 2.21758L2.28 4.61836L0.21 5.75312C-0.07 5.90625 -0.07 6.34102 0.21 6.49414L2.28 7.62617L1.5475 10.027C1.4475 10.3523 1.73 10.6586 2.0275 10.552L3.93 9.86016C4.0825 9.52109 4.28 9.21211 4.52 8.94414C4.1925 8.79648 3.885 8.57773 3.62 8.28789ZM3.5 6.12227C3.5 7.23789 4.2325 8.16758 5.1975 8.37266C5.3975 8.24414 5.605 8.13203 5.8275 8.05273C5.9625 6.84141 6.6025 5.79688 7.5125 5.18164C7.1825 4.38594 6.45 3.82812 5.6 3.82812C4.4425 3.82812 3.5 4.85625 3.5 6.12227Z" fill="black"/>
</g>
<defs>
<clipPath id="clip0">
<rect width="16" height="14" fill="white"/>
</clipPath>
</defs>
</svg>
