<svg width="9" height="16" viewBox="0 0 9 16" fill="none" xmlns="http://www.w3.org/2000/svg">
<path d="M4.66652 10.1867V5.66667C4.66652 5.48986 4.59628 5.32029 4.47126 5.19527C4.34624 5.07024 4.17667 5.00001 3.99986 5.00001C3.82304 5.00001 3.65348 5.07024 3.52845 5.19527C3.40343 5.32029 3.33319 5.48986 3.33319 5.66667V10.1867C3.13167 10.303 2.96411 10.4701 2.84716 10.6712C2.7302 10.8724 2.66793 11.1007 2.66652 11.3333C2.66652 11.687 2.807 12.0261 3.05705 12.2761C3.3071 12.5262 3.64623 12.6667 3.99986 12.6667C4.35348 12.6667 4.69262 12.5262 4.94266 12.2761C5.19271 12.0261 5.33319 11.687 5.33319 11.3333C5.33178 11.1007 5.26951 10.8724 5.15256 10.6712C5.0356 10.4701 4.86804 10.303 4.66652 10.1867ZM6.99986 8.66667V3.66667C6.99986 2.87102 6.68378 2.10796 6.12118 1.54535C5.55857 0.982742 4.79551 0.666672 3.99986 0.666672C3.20421 0.666672 2.44114 0.982742 1.87854 1.54535C1.31593 2.10796 0.999856 2.87102 0.999856 3.66667V8.66667C0.539084 9.18881 0.222607 9.82219 0.0817304 10.5042C-0.0591466 11.1861 -0.0195425 11.8931 0.196625 12.555C0.412793 13.217 0.798034 13.8111 1.31424 14.2785C1.83045 14.7459 2.45974 15.0704 3.13986 15.22C3.42238 15.2844 3.71029 15.3223 3.99986 15.3333C4.77361 15.3369 5.53179 15.116 6.18253 14.6974C6.83327 14.2788 7.34863 13.6804 7.66616 12.9748C7.98368 12.2692 8.08974 11.4867 7.97147 10.722C7.85321 9.95734 7.5157 9.24339 6.99986 8.66667ZM5.66652 13.38C5.13609 13.8503 4.44055 14.0907 3.73291 14.0482C3.02527 14.0056 2.36351 13.6838 1.89319 13.1533C1.42287 12.6229 1.18253 11.9274 1.22504 11.2197C1.26755 10.5121 1.58942 9.85032 2.11986 9.38C2.18285 9.31826 2.23296 9.24463 2.26729 9.16338C2.30162 9.08213 2.31949 8.99488 2.31986 8.90667V3.66667C2.31986 3.22464 2.49545 2.80072 2.80801 2.48816C3.12057 2.1756 3.54449 2.00001 3.98652 2.00001C4.42855 2.00001 4.85247 2.1756 5.16503 2.48816C5.47759 2.80072 5.65319 3.22464 5.65319 3.66667V8.96C5.65355 9.04821 5.67142 9.13547 5.70575 9.21672C5.74008 9.29797 5.7902 9.3716 5.85319 9.43334C6.12569 9.69659 6.33896 10.0149 6.4788 10.367C6.61864 10.7192 6.68184 11.0971 6.66418 11.4755C6.64651 11.854 6.5484 12.2244 6.37637 12.562C6.20435 12.8996 5.96236 13.1966 5.66652 13.4333V13.38Z" fill="#D12F2F"/>
</svg>
