<svg width="12" height="16" viewBox="0 0 12 16" fill="none" xmlns="http://www.w3.org/2000/svg">
<g clip-path="url(#clip0)">
<path d="M6.00029 3C5.90654 3 5.83154 3.1 5.83154 3.225V4.4H6.18779V3.225C6.16904 3.1 6.09404 3 6.00029 3Z" fill="#3E4347"/>
<path d="M5.83154 8.625H6.18779V12.225H5.83154V8.625Z" fill="#B8C2C4"/>
<path d="M6 4.1749V10.2749C6.3375 9.6999 6.84375 9.3249 7.44375 9.3249C8.04375 9.3249 8.55 9.6999 8.8875 10.2749C8.60625 6.8249 7.44375 4.1749 6 4.1749Z" fill="#FFBE5C"/>
<path d="M6.00029 4.1749V10.2749C5.66279 9.6999 5.15654 9.3249 4.55654 9.3249C3.97529 9.3249 3.45029 9.6999 3.11279 10.2749C3.39404 6.8249 4.55654 4.1749 6.00029 4.1749Z" fill="#ED77A8"/>
<path d="M6 4.1749C7.44375 4.1749 8.60625 6.8249 8.8875 10.2749C9.225 9.6999 9.73125 9.3249 10.3312 9.3249C10.8375 9.3249 11.3062 9.5999 11.6437 10.0499C11.0625 6.6999 8.75625 4.1749 6 4.1749Z" fill="#C7E86F"/>
<path d="M5.99971 4.1749C4.55596 4.1749 3.39346 6.8249 3.11221 10.2749C2.77471 9.6999 2.26846 9.3249 1.66846 9.3249C1.16221 9.3249 0.693457 9.5999 0.355957 10.0499C0.937207 6.6999 3.24346 4.1749 5.99971 4.1749Z" fill="#60D4E0"/>
<path d="M5.64385 12.2249V13.6249C5.64385 14.1499 5.3251 14.5749 4.93135 14.5749C4.5376 14.5749 4.21885 14.1499 4.21885 13.6249C4.21885 13.3749 4.06885 13.1499 3.8626 13.1499C3.6751 13.1499 3.50635 13.3499 3.50635 13.6249C3.50635 14.6499 4.14385 15.4999 4.9126 15.4999C5.68135 15.4999 6.31885 14.6499 6.31885 13.6249V12.2249H5.64385Z" fill="#3E4347"/>
<path d="M10.7063 0.5C11.2876 1.575 11.6251 2.55 11.6251 3.35C11.6251 4.025 11.2126 4.6 10.7063 4.6C10.2001 4.6 9.7876 4.05 9.7876 3.35C9.7876 2.55 10.1251 1.55 10.7063 0.5Z" fill="#75D6FF"/>
<path d="M7.57522 3.02505C8.15647 4.10006 8.49397 5.07506 8.49397 5.87506C8.49397 6.55006 8.08147 7.12506 7.57522 7.12506C7.06897 7.12506 6.65647 6.57506 6.65647 5.87506C6.63772 5.07506 6.99397 4.07506 7.57522 3.02505Z" fill="#75D6FF"/>
<path d="M4.4251 0.5C5.00635 1.575 5.34385 2.55 5.34385 3.35C5.34385 4.025 4.93135 4.6 4.4251 4.6C3.91885 4.6 3.50635 4.05 3.50635 3.35C3.50635 2.55 3.8626 1.55 4.4251 0.5Z" fill="#75D6FF"/>
<path d="M1.29375 3.02505C1.875 4.10006 2.2125 5.07506 2.2125 5.87506C2.2125 6.55006 1.8 7.12506 1.29375 7.12506C0.7875 7.12506 0.375 6.57506 0.375 5.87506C0.375 5.07506 0.7125 4.07506 1.29375 3.02505Z" fill="#75D6FF"/>
</g>
<defs>
<clipPath id="clip0">
<rect width="12" height="16" fill="white"/>
</clipPath>
</defs>
</svg>
