<svg width="34" height="27" viewBox="0 0 34 27" fill="none" xmlns="http://www.w3.org/2000/svg">
<g clip-path="url(#clip0)">
<path d="M31.9595 11.9474C31.355 12.0914 30.7605 12.2302 30.2114 12.5386C29.5666 12.9036 28.5086 13.5925 28.3121 14.4151C27.9696 15.1502 28.2215 16.3121 28.4129 16.9958C28.5842 17.6076 28.9116 18.1371 29.2391 18.6717C29.3298 18.8208 29.4255 18.9699 29.5262 19.119C29.3802 19.0213 29.2341 18.9236 29.088 18.826C28.564 18.4918 28.0451 18.1576 27.4456 17.9828C26.7404 17.7772 25.5162 17.5047 24.8109 17.9366C24.0552 18.2039 23.4255 19.2115 23.088 19.8387C22.7857 20.3939 22.6497 21.0057 22.5086 21.6226C22.4683 21.7974 22.4331 21.9722 22.3978 22.147C22.3625 21.9722 22.3273 21.7974 22.287 21.6226C22.1459 21.0057 22.0099 20.3991 21.7076 19.8387C21.3499 19.1807 20.6749 18.1011 19.8688 17.9006C19.1484 17.551 18.0099 17.8081 17.3399 18.0034C16.7404 18.1782 16.2215 18.5124 15.6975 18.8465C15.5514 18.9391 15.4053 19.0367 15.2592 19.1396C15.355 18.9905 15.4507 18.8414 15.5464 18.6923C15.8739 18.1576 16.2013 17.6281 16.3726 17.0164C16.5741 16.2966 16.8411 15.0474 16.4179 14.3277C16.156 13.5565 15.1686 12.9139 14.554 12.5695C14.0099 12.261 13.4104 12.1222 12.8058 11.9783C12.6346 11.9372 12.4633 11.9012 12.292 11.8652C12.4633 11.8292 12.6346 11.7932 12.8058 11.7521C13.4104 11.6081 14.0048 11.4693 14.554 11.1609C15.1988 10.7959 16.2567 10.107 16.4532 9.28445C16.7958 8.5493 16.5439 7.38746 16.3524 6.70372C16.1812 6.09195 15.8537 5.56244 15.5262 5.02778C15.4356 4.8787 15.3399 4.72961 15.2391 4.58053C15.3852 4.6782 15.5313 4.77588 15.6774 4.87356C16.2013 5.20771 16.7202 5.54187 17.3197 5.71666C18.025 5.9223 19.2492 6.19477 19.9545 5.76293C20.7101 5.49561 21.3399 4.48799 21.6774 3.8608C21.9796 3.30558 22.1157 2.69382 22.2567 2.07691C22.297 1.90212 22.3323 1.72733 22.3676 1.55254C22.4028 1.72733 22.4381 1.90212 22.4784 2.07691C22.6194 2.69382 22.7555 3.30044 23.0577 3.8608C23.4154 4.51883 24.0905 5.59842 24.8965 5.79892C25.6169 6.1485 26.7555 5.89145 27.4255 5.6961C28.025 5.52131 28.5439 5.18715 29.0678 4.85299C29.2139 4.76046 29.36 4.66278 29.5061 4.55996C29.4053 4.70905 29.3096 4.85813 29.2189 5.00722C28.8915 5.54187 28.564 6.07139 28.3927 6.68315C28.1912 7.40288 27.9242 8.65212 28.3474 9.37184C28.6094 10.143 29.5968 10.7856 30.2114 11.13C30.7555 11.4385 31.355 11.5773 31.9595 11.7212C32.1308 11.7624 32.3021 11.7983 32.4734 11.8343C32.3021 11.8703 32.1308 11.9063 31.9595 11.9474Z" fill="#FFF385"/>
<path d="M33.8842 11.6904C33.6676 11.6544 33.446 11.5876 33.1941 11.4848C33.0278 11.4179 32.8162 11.3974 32.6147 11.3768C32.4837 11.3665 32.3578 11.3511 32.252 11.3305C31.6727 11.1969 31.1235 10.9244 30.6449 10.6828C30.2318 10.4772 29.8288 10.1893 29.4107 9.80884C29.2898 9.69573 29.184 9.56721 29.0681 9.42841C28.9774 9.32045 28.8868 9.20735 28.786 9.10453C28.786 8.97087 28.7709 8.84235 28.7608 8.71382C28.7457 8.53389 28.7306 8.36424 28.7407 8.19459C28.7709 7.62395 28.8616 7.13043 29.0077 6.68831C29.179 6.16908 29.3754 5.58302 29.6978 5.07407C29.7583 4.98153 29.8339 4.88385 29.9195 4.7759C30.0505 4.61653 30.1815 4.45202 30.252 4.28237C30.3578 4.02532 30.4686 3.82483 30.5996 3.63976C30.6399 3.58321 30.6298 3.50609 30.5795 3.45982C30.5341 3.40842 30.4535 3.39813 30.3981 3.43926C30.2268 3.57292 30.0253 3.68088 29.7734 3.78884C29.6072 3.86082 29.446 3.99962 29.2898 4.12814C29.189 4.21554 29.0933 4.29265 29.0026 4.35434C28.4988 4.68336 27.9245 4.88385 27.4208 5.05864C26.9875 5.20773 26.5039 5.30027 25.9447 5.33111C25.7784 5.34139 25.6072 5.32597 25.4359 5.31055C25.2999 5.29513 25.1538 5.28484 25.0127 5.28484C24.922 5.19231 24.8213 5.11005 24.7205 5.0278C24.5845 4.90956 24.4535 4.8016 24.3477 4.67822C23.9749 4.25152 23.6928 3.84025 23.4913 3.4187C23.2545 2.92517 22.9875 2.36995 22.8565 1.77875C22.8364 1.67079 22.8263 1.54227 22.8112 1.40861C22.791 1.20297 22.7709 0.987053 22.7054 0.817403C22.6046 0.560358 22.5392 0.339299 22.5039 0.1131C22.4938 0.0462681 22.4384 0 22.3729 0C22.3679 0 22.3628 0 22.3578 0C22.2873 0 22.2369 0.0462681 22.2218 0.1131C22.1865 0.334158 22.121 0.560358 22.0203 0.817403C21.9548 0.987053 21.9346 1.20297 21.9145 1.40861C21.9044 1.54227 21.8943 1.67079 21.8691 1.77875C21.7381 2.36995 21.4711 2.93031 21.2344 3.4187C21.0329 3.84025 20.7507 4.25152 20.3779 4.67822C20.2671 4.8016 20.1412 4.90956 20.0051 5.0278C19.8994 5.12034 19.7885 5.21287 19.6878 5.31569C19.5568 5.31569 19.4308 5.33111 19.3049 5.34139C19.1336 5.35682 18.9623 5.37224 18.7961 5.36196C18.2369 5.33111 17.7533 5.23858 17.32 5.08949C16.8112 4.9147 16.2369 4.7142 15.7381 4.38519C15.6475 4.3235 15.5517 4.24638 15.451 4.15899C15.2948 4.02532 15.1336 3.89166 14.9674 3.81969C14.7155 3.71173 14.519 3.59863 14.3376 3.46497C14.2822 3.42384 14.2016 3.43412 14.1563 3.48553C14.1059 3.5318 14.0958 3.60891 14.1361 3.66546C14.2671 3.84539 14.3729 4.05103 14.4837 4.30807C14.5543 4.47772 14.6903 4.64223 14.8162 4.8016C14.9019 4.90442 14.9774 5.00209 15.0379 5.09463C15.3603 5.60872 15.5568 6.19478 15.7281 6.70887C15.8742 7.15099 15.9648 7.64452 15.9951 8.21516C16.0051 8.37966 15.99 8.55446 15.9749 8.72925C15.9598 8.87319 15.9497 9.01714 15.9497 9.16108C15.8591 9.25362 15.7784 9.35644 15.6978 9.45925C15.582 9.59806 15.4762 9.73172 15.3553 9.83968C14.9371 10.2201 14.5341 10.508 14.121 10.7136C13.6424 10.9553 13.0933 11.2277 12.514 11.3614C12.4082 11.3871 12.2822 11.3974 12.1512 11.4077C11.9497 11.4282 11.7381 11.4488 11.5719 11.5156C11.32 11.6184 11.0983 11.6853 10.8817 11.7212C10.8112 11.7315 10.7659 11.7932 10.7709 11.8652C10.7659 11.9372 10.8162 11.9989 10.8817 12.0091C11.0983 12.0451 11.32 12.112 11.5719 12.2148C11.7381 12.2816 11.9497 12.3022 12.1512 12.3227C12.2822 12.333 12.4082 12.3484 12.514 12.369C13.0933 12.5027 13.6424 12.7751 14.121 13.0168C14.5341 13.2224 14.9371 13.5103 15.3553 13.8907C15.4762 14.0038 15.582 14.1323 15.6978 14.2711C15.7885 14.3791 15.8792 14.4922 15.98 14.595C15.98 14.7287 15.9951 14.8572 16.0051 14.9857C16.0203 15.1657 16.0354 15.3353 16.0253 15.505C15.9951 16.0756 15.9044 16.5691 15.7583 17.0112C15.587 17.5305 15.3905 18.1165 15.0681 18.6255C15.0077 18.718 14.9321 18.8157 14.8465 18.9185C14.7155 19.0779 14.5845 19.2424 14.514 19.412C14.4082 19.6691 14.2973 19.8696 14.1664 20.0546C14.1261 20.1112 14.1361 20.1883 14.1865 20.2397C14.2318 20.2911 14.3125 20.3014 14.3679 20.2603C14.5442 20.1318 14.7507 20.0135 14.9976 19.9056C15.1638 19.8336 15.325 19.6948 15.4812 19.5663C15.582 19.4789 15.6777 19.4018 15.7684 19.3401C16.2721 19.011 16.8465 18.8105 17.3502 18.6358C17.7835 18.4867 18.2671 18.3941 18.8263 18.3633C18.9926 18.353 19.1638 18.3684 19.3351 18.3839C19.4711 18.3993 19.6172 18.4096 19.7583 18.4096C19.849 18.5021 19.9497 18.5844 20.0505 18.6666C20.1865 18.7848 20.3175 18.8928 20.4233 19.0162C20.7961 19.4429 21.0782 19.8542 21.2797 20.2757C21.5165 20.7692 21.7835 21.3244 21.9145 21.9157C21.9397 22.0236 21.9497 22.1521 21.9598 22.2858C21.98 22.4914 22.0001 22.7073 22.0656 22.877C22.1664 23.134 22.2318 23.3602 22.2671 23.5813C22.2772 23.6481 22.3326 23.6944 22.4031 23.6944C22.4082 23.6944 22.4132 23.6944 22.4182 23.6944C22.4888 23.6944 22.5392 23.6481 22.5543 23.5813C22.5895 23.3602 22.655 23.134 22.7558 22.877C22.8213 22.7073 22.8414 22.4914 22.8616 22.2858C22.8716 22.1521 22.8868 22.0236 22.9069 21.9157C23.0329 21.3244 23.3049 20.7641 23.5417 20.2757C23.7432 19.8542 24.0253 19.4429 24.3981 19.0162C24.5089 18.8928 24.6349 18.7848 24.7709 18.6666C24.8767 18.5741 24.9875 18.4815 25.0883 18.3787C25.2142 18.3787 25.3452 18.3633 25.4711 18.353C25.6424 18.3376 25.8137 18.3222 25.98 18.3324C26.5392 18.3633 27.0228 18.4558 27.456 18.6049C27.9648 18.7797 28.5392 18.9802 29.0379 19.3092C29.1286 19.3709 29.2243 19.448 29.325 19.5354C29.4812 19.6691 29.6424 19.8027 29.8087 19.8747C30.0606 19.9827 30.257 20.0958 30.4384 20.2294C30.4938 20.2706 30.5694 20.2603 30.6147 20.214C30.6701 20.1677 30.6802 20.0906 30.6349 20.0289C30.5039 19.849 30.3931 19.6434 30.2873 19.3863C30.2167 19.2167 30.0807 19.0522 29.9548 18.8928C29.8691 18.79 29.7936 18.6923 29.7331 18.5998C29.4107 18.0857 29.2193 17.4996 29.0429 16.9855C28.8968 16.5434 28.8062 16.0499 28.7759 15.4792C28.7659 15.3147 28.781 15.1399 28.7961 14.96C28.8112 14.8161 28.8213 14.6721 28.8213 14.5282C28.9119 14.4356 28.9926 14.3328 29.0732 14.23C29.189 14.0912 29.2948 13.9575 29.4157 13.8496C29.8339 13.4692 30.2369 13.1813 30.65 12.9756C31.1336 12.734 31.6777 12.4615 32.257 12.3279C32.3628 12.3022 32.4888 12.2919 32.6198 12.2816C32.8213 12.261 33.0329 12.2405 33.1991 12.1736C33.446 12.0708 33.6727 12.004 33.8893 11.968C33.9598 11.9577 34.0051 11.896 34.0001 11.8241C34.0001 11.7624 33.9548 11.7007 33.8842 11.6904ZM28.2268 14.3791C27.9648 14.9497 27.9951 15.8391 28.3276 17.0215C28.4988 17.623 28.8162 18.1525 29.1286 18.6666L29.1638 18.7283C29.1789 18.7489 29.189 18.7694 29.2041 18.79C29.184 18.7746 29.1638 18.7643 29.1437 18.7489L29.0883 18.7129C28.5895 18.3941 28.0706 18.0703 27.4762 17.8955C26.252 17.5356 25.325 17.5253 24.7759 17.8543C24.1915 18.0651 23.5971 18.718 23.0127 19.7976C22.7155 20.3477 22.5744 20.9543 22.4384 21.5404L22.4233 21.6072C22.4182 21.6329 22.4132 21.6586 22.4082 21.6792C22.4031 21.6535 22.3981 21.6278 22.3931 21.6072L22.3779 21.5404C22.2419 20.9543 22.1059 20.3477 21.8036 19.8027C21.1739 18.646 20.5392 17.9829 19.9145 17.8235C19.3553 17.5562 18.4737 17.5922 17.325 17.9263C16.7356 18.1011 16.2167 18.425 15.713 18.7437L15.6575 18.7797C15.6374 18.7951 15.6172 18.8054 15.5971 18.8208C15.6122 18.8003 15.6223 18.7797 15.6374 18.7591L15.6727 18.7026C15.985 18.1936 16.3074 17.6641 16.4737 17.0575C16.8263 15.7928 16.8414 14.8675 16.514 14.302C16.3074 13.7056 15.6676 13.099 14.6097 12.5027C14.0706 12.1994 13.4762 12.0554 12.9069 11.9166L12.8414 11.9012C12.8162 11.896 12.791 11.8909 12.7709 11.8858C12.7961 11.8806 12.8213 11.8755 12.8414 11.8703L12.9069 11.8549C13.4812 11.7161 14.0757 11.5773 14.6147 11.2689C15.7482 10.6262 16.3981 9.97849 16.5543 9.34101C16.8162 8.77037 16.786 7.881 16.4535 6.69859C16.2822 6.09197 15.9648 5.56759 15.6525 5.0535L15.6172 4.99695C15.6021 4.97639 15.592 4.95583 15.5769 4.93526C15.5971 4.95069 15.6172 4.96097 15.6374 4.97639L15.6928 5.01238C16.1915 5.33111 16.7104 5.66013 17.3049 5.82978C18.5291 6.1845 19.456 6.19992 20.0051 5.87091C20.5895 5.66013 21.184 5.00724 21.7684 3.92765C22.0656 3.37757 22.2067 2.77094 22.3427 2.18488L22.3578 2.11805C22.3628 2.09235 22.3679 2.06664 22.3729 2.04608C22.3779 2.07178 22.383 2.09749 22.388 2.11805L22.4031 2.18488C22.5291 2.75552 22.6701 3.36215 22.9674 3.90708C23.5971 5.06379 24.2318 5.72696 24.8565 5.88633C25.4157 6.15366 26.2973 6.11767 27.446 5.78351C28.0354 5.60872 28.5543 5.28484 29.058 4.96611L29.1135 4.93012C29.1336 4.9147 29.1538 4.90442 29.1739 4.88899C29.1588 4.90956 29.1487 4.93012 29.1336 4.95069L29.0983 5.00724C28.786 5.51618 28.4636 6.0457 28.2973 6.65232C27.9447 7.91698 27.9296 8.84235 28.257 9.40784C28.4636 10.0042 29.1034 10.6108 30.1613 11.2072C30.7004 11.5105 31.2948 11.6544 31.8691 11.7932L31.9346 11.8086C31.9598 11.8138 31.985 11.8189 32.0051 11.8241C31.98 11.8292 31.9548 11.8343 31.9346 11.8395L31.8691 11.8549C31.2948 11.9937 30.7004 12.1325 30.1613 12.441C29.0379 13.0939 28.383 13.7416 28.2268 14.3791Z" fill="#FFAA00"/>
<path d="M23.7281 15.942C21.2798 16.8519 18.7105 15.1297 18.1463 12.6415C17.8692 11.418 18.2218 10.0608 18.9775 9.084C19.4611 8.46195 20.1009 8.01984 20.8112 7.73709C21.5619 7.54687 22.3327 7.48518 23.1236 7.65997C24.3679 7.93244 25.4208 8.70872 26.0606 9.82943C27.3956 12.1531 26.116 15.0526 23.7281 15.942Z" fill="#FFDC31"/>
<path d="M26.01 8.62118C25.1335 7.57244 23.6927 6.92468 22.2418 6.92468C21.4257 6.92468 20.665 7.13032 20.0352 7.52103C18.8765 8.14308 17.9546 9.36147 17.6322 10.6981C17.1133 12.8316 18.1007 15.0781 20.0302 16.1629C20.7607 16.5741 21.5869 16.7901 22.4231 16.7901C23.9294 16.7901 25.3148 16.1217 26.2317 14.9496C27.6524 13.1349 27.5566 10.4719 26.01 8.62118ZM26.2619 13.2171C25.8337 14.4253 24.8765 15.4072 23.6927 15.8493C23.2645 16.0086 22.8161 16.0909 22.3677 16.0909C20.4634 16.0909 18.6851 14.6 18.2367 12.6208C17.9748 11.4641 18.2871 10.1326 19.0478 9.14555C19.4912 8.56977 20.0957 8.12765 20.8312 7.82948C21.2997 7.71124 21.733 7.65469 22.1612 7.65469C22.4786 7.65469 22.7959 7.69068 23.0982 7.75237C24.3224 8.01969 25.34 8.77541 25.9748 9.87556C26.5642 10.8935 26.665 12.081 26.2619 13.2171Z" fill="#FFAA00"/>
<path d="M28.519 22.0286C28.3377 23.3652 27.5417 24.5785 26.4787 25.3651C25.5064 26.0848 24.3981 26.2596 23.2545 26.3213C22.1462 26.311 21.0379 26.3675 19.9346 26.3881C18.4787 26.4138 17.0077 26.3932 15.5518 26.3315C14.1059 26.2698 12.6651 26.1927 11.2243 26.0899C10.519 26.0385 9.82884 25.9151 9.22431 25.5193C8.88678 25.2982 8.65504 24.9589 8.53413 24.5785C8.47872 24.3934 8.48375 24.2135 8.49383 24.0284C8.74068 23.4218 8.73061 22.7535 8.40819 22.1417C8.04547 21.4477 7.25453 21.0775 6.51902 21.2986C5.94975 21.4682 5.52657 22.3576 6.12607 22.7432C6.1966 22.7895 6.28224 22.7123 6.26209 22.6352C6.06562 21.8538 6.75579 21.5042 7.40063 21.823C7.9296 22.08 8.16133 22.6815 8.16637 23.2419C8.17645 24.2803 7.40063 25.108 6.54421 25.6015C4.93212 26.4087 2.99761 25.5244 1.90944 24.1878C0.67015 22.6661 0.403147 20.4812 1.00768 18.6356C1.29484 17.7565 1.82884 16.97 2.4636 16.3171C3.07317 15.6899 3.9296 15.0473 4.78098 15.4123C5.60214 16.8003 7.09836 17.7411 8.77594 17.6691C11.2797 17.5612 13.1084 14.7799 11.718 12.4922C11.1084 11.4898 9.68778 10.8677 8.68526 11.6491C7.89937 12.266 8.00516 13.7929 9.13866 13.8649C9.23438 13.87 9.23942 13.7363 9.15882 13.7055C8.2369 13.3662 8.383 12.2352 9.20416 11.8908C9.94471 11.5823 10.7457 12.0553 11.184 12.6567C11.9497 13.7055 11.7482 15.1552 10.912 16.0806C10.0253 17.0574 8.63992 17.2887 7.43589 16.9134C6.13111 16.5073 5.18904 15.3711 4.82128 14.0602C4.04043 11.2533 6.05554 8.616 8.57947 7.75233C11.2142 6.85267 14.5845 7.68036 16.2722 9.99376C16.65 10.5079 16.9019 11.0888 17.0732 11.7057C17.2394 12.2969 17.3351 12.8932 17.6676 13.4227C18.121 14.1476 19.3301 14.528 19.7835 13.5873C19.854 13.4433 19.6727 13.2788 19.5568 13.4073C18.9926 14.0602 18.2571 13.5204 17.9548 12.9241C17.7079 12.4357 17.6424 11.8599 17.5014 11.3201C17.5266 10.9448 17.6979 10.6004 18.0757 10.3125C18.7508 9.80355 19.6676 9.94235 20.388 10.2508C21.7231 10.8266 22.786 12.0398 23.3402 13.3919C23.7936 14.5075 23.8137 15.6899 23.7986 16.8723C23.8087 16.8877 23.8188 16.9031 23.8188 16.9237C23.8188 17.5149 23.8238 18.101 23.8037 18.687C23.8591 19.1908 24.0555 19.6484 24.4888 19.9414C24.8918 20.219 25.4107 20.0802 25.6676 19.6946C25.7331 19.5918 25.5921 19.5044 25.5115 19.5713C24.9976 20.0031 24.5241 19.4787 24.3679 19.0058C24.2218 18.5585 24.2974 17.9981 24.3074 17.5355C24.3074 17.4429 24.3125 17.3504 24.3125 17.2527C24.5341 16.9802 24.8969 16.8055 25.315 16.79C26.116 16.7592 26.8414 17.4121 27.3402 17.9776C28.2923 19.0675 28.7155 20.6097 28.519 22.0286Z" fill="white"/>
<path d="M29.2647 20.7383C29.0884 18.867 27.9498 17.1037 26.4234 16.348C25.8239 16.0498 25.1337 16.0138 24.5544 16.2452C24.5443 15.6334 24.509 15.1347 24.4486 14.6566C24.237 13.1041 23.4561 11.6544 22.242 10.5748C21.3101 9.74194 20.1816 9.24327 19.2294 9.24327C18.8315 9.24327 18.4536 9.32553 18.1111 9.49004C17.7685 9.65455 17.4914 9.86532 17.2798 10.1275C16.8214 9.29982 16.1262 8.54925 15.2597 7.94777C14.0305 7.09438 12.4637 6.62656 10.8566 6.62656C9.69292 6.62656 8.53927 6.87332 7.53171 7.336C5.16395 8.42587 3.70803 10.8575 3.90955 13.3868C3.93474 13.829 4.03045 14.2659 4.18159 14.6875C3.44607 14.7183 2.72063 15.217 2.34783 15.5152C1.42592 16.2555 0.720629 17.3196 0.302493 18.5894C-0.518666 21.0828 0.362947 24.1056 2.35287 25.617C3.16395 26.2339 4.16144 26.5732 5.16395 26.5732C6.35791 26.5732 7.39569 26.09 8.07076 25.2263C8.36798 25.8535 8.96748 26.2339 9.43096 26.4396C10.0305 26.712 10.6703 26.7686 11.3806 26.82C12.2118 26.8766 13.0582 26.8971 13.8743 26.9228L14.0254 26.928C15.5619 26.9742 17.0582 27.0102 18.5493 26.9845L18.5443 26.7429L18.5745 26.9845C18.9876 26.9948 19.3957 26.9999 19.8088 26.9999C19.97 26.9999 20.1312 26.9999 20.2975 26.9948C20.8667 26.9897 21.441 26.9794 22.0103 26.9691H22.0909C22.1665 26.9691 22.237 26.9691 22.3126 26.9742C22.5342 26.9794 22.7509 26.9794 22.9171 26.964C22.9977 26.9691 23.0783 26.9691 23.1589 26.9691H23.169C23.2798 26.9742 23.3907 26.9794 23.5015 26.9794C24.9272 26.9794 26.2924 26.4807 27.3453 25.581C28.7005 24.4192 29.436 22.5685 29.2647 20.7383ZM8.76597 24.5066C8.72567 24.3781 8.72567 24.2496 8.73574 24.085C9.00274 23.4065 8.96244 22.6764 8.62995 22.0287C8.30249 21.4015 7.64758 20.9954 6.96244 20.9954C6.7962 20.9954 6.62491 21.0211 6.4637 21.0673C6.04557 21.1907 5.68285 21.6277 5.61735 22.0801C5.56698 22.44 5.70803 22.7587 6.00526 22.9489C6.14128 23.0363 6.33272 23.0003 6.43348 22.8718C6.49897 22.7895 6.51912 22.6816 6.49393 22.5839C6.44355 22.3886 6.4637 22.224 6.54934 22.1161C6.68536 21.9362 7.01282 21.9053 7.30501 22.0441C7.76345 22.2703 7.93473 22.8152 7.93473 23.2522C7.94481 24.4089 6.88688 25.1389 6.44355 25.396C6.06572 25.5862 5.65766 25.6787 5.21937 25.6787C4.11106 25.6787 2.91207 25.0515 2.09091 24.0439C0.967481 22.6559 0.629949 20.5635 1.23448 18.718C1.49141 17.9365 1.97504 17.1654 2.63499 16.4919C3.39569 15.7105 4.06068 15.4124 4.62491 15.6128C5.53675 17.0934 7.12365 17.9828 8.78612 17.9108C10.1463 17.8491 11.3856 17.0472 12.0254 15.8185C12.6048 14.6978 12.5695 13.4382 11.9196 12.3689C11.441 11.5875 10.5594 11.0632 9.71811 11.0632C9.28486 11.0632 8.8768 11.202 8.53927 11.4693C8.04053 11.86 7.81383 12.5951 8.00526 13.2223C8.16144 13.7467 8.57957 14.0809 9.1438 14.1117C9.29494 14.1117 9.41584 14.0037 9.44607 13.8547C9.47126 13.6953 9.38562 13.5411 9.23952 13.4897C8.93725 13.3817 8.77101 13.1658 8.76093 12.883C8.75589 12.5643 8.96748 12.2558 9.2899 12.1222C9.41584 12.0708 9.55186 12.0451 9.68788 12.0451C10.1413 12.0451 10.6551 12.3432 10.9927 12.8111C11.6577 13.721 11.5468 15.0319 10.7357 15.9316C10.1967 16.5279 9.41584 16.8569 8.54934 16.8569C8.1967 16.8569 7.84406 16.8004 7.50149 16.6976C6.34783 16.3377 5.40577 15.3044 5.04809 14.0089C4.28738 11.2739 6.28234 8.8063 8.65514 7.99404C9.32013 7.76784 10.0405 7.6496 10.7861 7.6496C12.9272 7.6496 14.9574 8.6058 16.0859 10.1532C16.4184 10.6108 16.6702 11.1454 16.8466 11.788C16.8818 11.9165 16.9121 12.0399 16.9473 12.1684C17.0682 12.6363 17.1891 13.1247 17.4713 13.5668C17.7786 14.0603 18.3781 14.4047 18.9221 14.4047C19.4007 14.4047 19.7786 14.158 19.9952 13.7107C20.0556 13.5873 20.0456 13.4434 19.975 13.3303C19.8441 13.1195 19.5418 13.0835 19.3856 13.2737C19.2597 13.4177 19.1287 13.4897 18.9826 13.4897C18.6652 13.4897 18.3327 13.1606 18.1665 12.8368C18.0002 12.5129 17.9247 12.1376 17.839 11.7469C17.8088 11.6029 17.7786 11.4641 17.7433 11.3202C17.7786 11.0015 17.9347 10.7444 18.2219 10.5234C18.7257 10.1429 19.4964 10.1429 20.3025 10.4925C21.5166 11.0169 22.5745 12.1427 23.1287 13.5051C23.567 14.5795 23.5871 15.7208 23.567 16.8929C23.567 16.9289 23.572 16.9598 23.5871 16.9906V17.1962C23.5871 17.6898 23.5871 18.2039 23.572 18.7025C23.572 18.7128 23.572 18.7282 23.572 18.7385C23.6425 19.376 23.9045 19.8541 24.3579 20.1677C24.5342 20.2911 24.7408 20.3579 24.9524 20.3579C25.3151 20.3579 25.6577 20.1728 25.8642 19.8592C25.9347 19.7564 25.9398 19.6279 25.8844 19.5251C25.7937 19.3451 25.5216 19.2886 25.3655 19.4223C25.2798 19.4942 25.1992 19.5302 25.1237 19.5302C24.907 19.5302 24.6854 19.2423 24.5947 18.9647C24.4939 18.6563 24.5141 18.2707 24.5342 17.9005C24.5393 17.7874 24.5443 17.6795 24.5493 17.5767L24.5544 17.3865C24.7408 17.1962 25.0179 17.0831 25.3302 17.0677H25.3806C25.9247 17.0677 26.5141 17.4276 27.174 18.1782C28.0556 19.1704 28.4839 20.6458 28.2975 22.0184C28.1312 23.2265 27.4058 24.4141 26.3529 25.1955C25.3957 25.9049 24.2975 26.054 23.2697 26.1054C22.5493 26.1003 21.8239 26.1208 21.1186 26.1414C20.7257 26.1517 20.3327 26.1671 19.9398 26.1723C19.5317 26.1774 19.1237 26.1825 18.7156 26.1825C17.703 26.1825 16.6451 26.162 15.572 26.1157C14.0254 26.054 12.6098 25.9718 11.2496 25.8741C10.6551 25.833 9.95992 25.7353 9.36043 25.3394C9.07831 25.1389 8.87176 24.8562 8.76597 24.5066Z" fill="#9DB3C1"/>
</g>
<defs>
<clipPath id="clip0">
<rect width="34" height="27" fill="white"/>
</clipPath>
</defs>
</svg>
