<svg width="61" height="36" viewBox="0 0 61 36" fill="none" xmlns="http://www.w3.org/2000/svg">
<path d="M60.2272 24.9873C60.2272 24.9873 55.9905 17.2452 52.5664 12.7047C52.8353 10.3007 53.0224 5.30309 50.411 3.20857C49.4561 2.44042 48.1952 2.11699 46.7531 2.27093C44.3483 2.53061 42.5729 3.27699 41.4894 4.49452C40.7898 5.27199 40.5111 6.10079 40.4078 6.79274C37.4047 6.25784 35.0252 6.10079 35.0252 6.10079C35.0252 6.10079 34.8615 0.776617 33.9689 0.453186C33.4993 0.283696 30.0596 2.87892 27.0604 5.50524L27.0663 5.49435C27.0663 5.49435 27.0585 5.50524 27.0585 5.50679C26.2205 6.24384 25.4156 6.97623 24.7238 7.65885C23.8761 8.26684 22.7867 8.9588 21.3017 9.70673C11.6434 17.2934 10.0337 27.284 8.88193 29.8621C7.73019 32.4417 0.991211 35.6574 0.991211 35.6574L7.81399 35.6994C7.81399 35.6994 13.904 25.8347 15.2838 21.1388C16.34 23.4385 9.04368 35.6574 9.04368 35.6574C9.04368 35.6574 13.0095 35.7538 13.4149 35.6574C13.8202 35.5594 18.6533 22.2086 18.5441 18.2497C19.9122 21.8851 15.732 35.7009 15.732 35.7009C15.732 35.7009 21.9039 35.7009 22.9991 35.7009C19.2632 33.3685 20.9821 29.2805 20.5767 22.4776C20.3078 17.9838 22.2702 13.5599 23.6344 11.0642C25.8307 11.3161 30.2389 10.6226 30.2389 10.6226C30.2389 10.6226 29.9661 12.4637 30.3403 14.8412C29.4497 14.7992 27.723 14.8536 26.1659 15.7384C24.6478 16.6107 23.7065 18.0242 23.3811 19.9399C23.1862 21.0859 23.5915 22.0966 24.5562 22.8585C26.4348 24.3497 30.1727 24.7012 33.2537 24.7012C35.3234 24.7012 37.0987 24.541 37.81 24.4741C44.3035 27.5561 54.5717 30.1077 54.5717 30.1077L60.2272 24.9873ZM25.9321 21.7561C25.3981 21.3331 25.2013 20.8184 25.3182 20.1467C25.5676 18.6804 26.2322 17.6215 27.2904 17.0104C28.7598 16.1629 30.5702 16.4164 30.5858 16.4195L30.6267 16.2422C31.2192 18.542 32.482 21.0843 35.1109 22.9316C35.1869 22.9829 35.2746 23.0296 35.3506 23.0856C32.1741 23.2317 27.6431 23.1151 25.9321 21.7561ZM49.4814 9.70362C47.4917 8.52496 44.816 7.72105 42.3098 7.16904C42.3566 6.65902 42.532 5.99349 43.0718 5.39639C43.8396 4.54428 45.1629 4.00782 47.0143 3.80878C47.8581 3.71704 48.4992 3.87409 49.0254 4.30015C50.4831 5.46792 50.7988 8.28861 50.7462 10.6692C50.3311 10.2992 49.9141 9.96019 49.4814 9.70362Z" fill="#BA94BB"/>
</svg>
