<svg width="37" height="35" viewBox="0 0 37 35" fill="none" xmlns="http://www.w3.org/2000/svg">
<path d="M35.6934 31.344C35.6934 31.344 36.3751 29.3766 36.1086 28.6686C35.8949 28.1031 33.9797 24.6518 32.8435 22.4404C32.5 21.6807 32.2416 21.0148 32.2335 20.6673C32.2065 19.5686 34.0094 16.7723 33.6091 14.9042C33.2033 13.0382 29.0104 10.5906 29.5758 10.2053C30.1411 9.81891 35.4161 10.0078 35.8286 9.56097C36.2439 9.11418 36.9594 8.59399 36.4765 7.91948C35.9936 7.24496 31.3097 5.47072 31.0663 5.27862C30.8242 5.08544 30.4617 1.73877 27.6375 2.06145C28.5235 6.53591 27.4374 8.17741 22.6344 9.59335C21.9487 10.1427 22.1435 12.2148 22.4518 13.1408C23.5812 18.103 14.6611 15.9068 11.8424 15.9403C8.95605 15.8097 7.43442 15.5399 4.79694 16.931C2.85332 17.953 1.40202 17.2569 0.387608 16.5824C-1.3883 18.8078 3.52959 18.6966 3.26179 19.3128C2.47054 20.541 2.93717 22.9412 3.17658 23.3275C3.47279 23.8002 3.57829 24.5212 3.48631 24.7608C3.12383 25.6932 0.260467 27.9315 0.260467 29.0971C0.260467 30.2637 0.467408 33.1053 0.467408 33.1053C0.467408 33.1053 0.249647 34.7522 0.68517 34.7522C1.11934 34.7522 3.48225 34.6874 4.04627 34.6874C4.61029 34.6874 3.76359 33.1938 2.6058 33.0988C2.6058 32.7438 2.8709 29.2438 2.8709 29.2438L6.27528 25.9792C6.27528 25.9792 6.66752 29.1823 7.2099 29.8191C7.75363 30.4547 9.64585 33.3384 9.64585 33.3384C9.64585 33.3384 9.52683 34.5471 9.8839 34.5471C10.241 34.5471 12.2062 34.5061 12.919 34.5061C13.6305 34.5061 12.7594 32.9445 11.6598 33.0384C11.2432 32.5171 10.3073 29.6302 10.03 28.9935C9.7527 28.3567 9.67831 26.1378 9.71618 25.187C9.75135 24.2341 10.9484 25.8907 16.5642 25.8616C22.1773 25.8324 24.0032 25.187 24.0032 25.187C24.0032 25.187 25.2259 32.6844 25.3112 33.2273C25.4248 33.8187 25.1894 34.4586 25.5722 34.4586C25.9563 34.4586 28.2327 34.4716 28.89 34.4716C29.5487 34.4716 29.0172 32.7405 27.482 32.7427C27.1831 32.1664 26.9464 28.6114 26.9464 28.6114L29.3972 25.0208C29.3972 25.0208 33.1844 28.0923 33.7186 28.8985C34.2542 29.7036 34.0013 31.8728 34.0013 31.8728C34.0013 31.8728 33.4968 32.3455 33.3507 32.6553C33.7173 33.1258 34.6424 33.6881 35.4567 34.3399C36.5265 34.1489 36.605 33.0319 36.3494 32.3952C36.0937 31.753 35.6934 31.344 35.6934 31.344Z" fill="#BA94BB"/>
<path d="M21.9138 7.46415C24.9652 6.15182 22.8092 3.37069 22.1654 3.6923C22.5157 4.78878 22.3236 6.52523 20.311 6.41731C18.293 6.30831 18.2254 3.10197 21.5865 2.39293C24.9462 1.68604 27.7311 6.84684 21.036 8.58437C25.4196 8.8423 27.7081 7.23212 27.251 3.00376C26.7938 -1.2246 15.7367 -0.365544 15.55 4.39918C15.358 9.16391 20.6505 7.91526 21.9138 7.46415Z" fill="#BA94BB"/>
</svg>
