<svg width="51" height="37" viewBox="0 0 51 37" fill="none" xmlns="http://www.w3.org/2000/svg">
<path d="M37.2608 16.9761C37.5097 14.2695 27.9131 11.7615 27.9131 11.7615C27.9131 11.7615 27.7133 9.67163 29.0712 8.92291C28.1606 7.6029 26.5063 12.355 26.5063 12.355C26.5063 12.355 25.5957 11.3644 24.2722 12.355C23.7759 12.355 23.6105 8.52691 22.287 8.59238C22.8667 10.1764 22.6179 12.4204 22.6179 12.4204C22.6179 12.4204 15.3387 14.203 14.1807 16.3805C13.0227 18.558 16.4968 26.6766 25.2648 27.0071C34.0329 27.3387 37.0133 19.6826 37.2608 16.9761Z" fill="#BA94BB"/>
<path d="M35.8016 13.7697C36.425 13.9682 37.4282 15.228 37.8821 15.228C38.3361 15.228 44.0866 11.6313 44.4995 10.6408C44.9125 9.65028 44.5022 9.43592 43.9649 8.71045C42.558 9.37044 35.1809 13.5712 35.8016 13.7697Z" fill="#BA94BB"/>
<path d="M37.2663 6.84475C38.337 7.50473 40.6941 9.8479 40.6941 9.8479H40.8596C41.7437 9.43819 43.2577 8.39596 43.9195 8.42869C44.5812 8.46143 37.6726 -1.14145 30.1884 0.113023C36.2261 1.89548 36.8455 4.36959 35.1514 5.16156C33.456 5.95353 30.3538 4.30306 28.7828 2.65366C28.2045 6.74549 36.197 6.18478 37.2663 6.84475Z" fill="#BA94BB"/>
<path d="M42.1777 20.2284C41.2129 20.6044 40.2931 20.9064 39.5797 21.0268C38.8558 21.1471 38.4455 21.0658 38.1504 20.9655C37.9982 20.9085 37.9584 20.8948 37.7983 20.8198C37.6739 20.7659 37.609 20.7385 37.609 20.7385L36.4814 22.6498C36.4814 22.6498 36.5516 22.672 36.6773 22.7121C36.762 22.7385 37.1008 22.8441 37.4423 22.9085C37.789 22.9761 38.2364 23.0162 38.7274 22.9972C39.2157 22.9708 39.7279 22.8716 40.2216 22.729C41.1983 22.4344 42.1261 21.9782 43.0671 21.4713C43.5396 21.2179 44.0134 20.9476 44.4858 20.6709C45.0205 20.3552 45.4162 20.1102 45.9099 19.7279C46.3784 19.3752 46.7781 19.0162 47.1513 18.6392C47.5365 18.2696 47.8726 17.8863 48.1823 17.5114C48.8083 16.7585 49.3126 16.0267 49.7043 15.3889C50.4931 14.1101 50.8703 13.2146 50.8703 13.2146C50.8703 13.2146 50.3409 14.0615 49.3536 15.2252C48.8573 15.8039 48.2472 16.4607 47.5285 17.1101C47.1699 17.4343 46.786 17.7606 46.3731 18.0626C45.9695 18.3699 45.5195 18.6709 45.0854 18.918C44.6897 19.1598 44.1034 19.4365 43.6613 19.6202C43.165 19.8346 42.6634 20.0426 42.1777 20.2284Z" fill="#BA94BB"/>
<path d="M49.4958 21.7463C49.2814 21.9174 48.9664 22.043 48.6448 22.2014C48.3417 22.3682 47.9447 22.4748 47.5622 22.6195C47.1718 22.7599 46.7271 22.8581 46.2903 22.9838C45.3851 23.1886 44.4136 23.3702 43.4237 23.4895C41.449 23.7387 39.4347 23.8137 37.9921 23.7577C37.6387 23.7324 37.3026 23.7207 37.0366 23.6891C36.8116 23.6563 36.4436 23.6173 36.5217 23.6088C36.5151 23.6088 36.5072 23.6173 36.4966 23.631C36.4913 23.6521 36.3761 23.5793 36.3417 23.5655C36.2412 23.5159 36.1869 23.4916 36.1869 23.4916L34.8555 25.3172C34.8555 25.3172 34.915 25.3383 35.0262 25.3732C35.103 25.3953 35.1096 25.4059 35.275 25.445C35.4352 25.484 35.6244 25.5231 35.8388 25.5558C36.3563 25.6371 36.531 25.5917 36.9267 25.6033C37.2841 25.6012 37.648 25.5643 38.0636 25.5379C39.6796 25.39 41.7362 25.0395 43.732 24.5137C44.7299 24.2592 45.704 23.9361 46.5908 23.6036C47.0249 23.4103 47.4537 23.2551 47.8335 23.0556C48.2067 22.8507 48.5799 22.6902 48.8751 22.4717C49.1755 22.2658 49.4614 22.0979 49.6586 21.8857C49.8518 21.684 50.0715 21.5457 50.1602 21.3683C50.3693 21.0505 50.4884 20.8689 50.4884 20.8689C50.4884 20.8689 50.3362 21.0294 50.0675 21.3145C49.967 21.4707 49.7155 21.5827 49.4958 21.7463Z" fill="#BA94BB"/>
<path d="M39.7429 32.0063C39.5986 31.6779 39.4941 31.3136 39.2797 30.9841C39.0957 30.643 38.8787 30.3061 38.6312 29.9893C37.6717 28.6852 36.3561 27.6091 35.431 26.8255C35.206 26.6323 34.9996 26.4602 34.8156 26.307C34.6502 26.1613 34.4715 26.005 34.4715 25.9839C34.4503 25.9617 34.4331 25.9448 34.4093 25.9301C34.3762 25.8762 34.3418 25.8318 34.3219 25.7981C34.2703 25.7241 34.2412 25.6851 34.2412 25.6851L32.0059 26.815C32.0059 26.815 32.0389 26.8477 32.1091 26.9142C32.1395 26.947 32.1845 26.9882 32.2361 27.0357C32.3182 27.1043 32.4228 27.1899 32.5339 27.2796C32.7947 27.4908 32.976 27.5816 33.2115 27.7295C33.4392 27.8615 33.6893 28.0093 33.9659 28.1688C35.0393 28.7908 36.4501 29.587 37.5592 30.6081C37.8517 30.8563 38.1071 31.1235 38.3374 31.4002C38.6007 31.6642 38.7529 31.9609 38.9607 32.2376C39.1209 32.5237 39.2585 32.8131 39.3736 33.0929C39.4491 33.3791 39.5391 33.6484 39.5828 33.9071C39.6013 34.169 39.6132 34.4087 39.6291 34.6199C39.637 34.8332 39.5801 35.017 39.5669 35.1711C39.5206 35.4805 39.4914 35.658 39.4914 35.658C39.4914 35.658 39.5616 35.4869 39.678 35.1901C39.727 35.036 39.825 34.8586 39.8713 34.64C39.9057 34.4193 39.9507 34.1732 39.997 33.9008C40.0155 33.6241 39.9824 33.3274 39.9745 33.0032C39.9216 32.6853 39.8488 32.3474 39.7429 32.0063Z" fill="#BA94BB"/>
<path d="M31.4736 28.5886C31.4061 28.3753 31.3439 28.1778 31.2896 28.0025C31.2685 27.9244 31.2539 27.8484 31.2354 27.7818C31.2116 27.7058 31.2023 27.6456 31.2142 27.6583C31.2221 27.6541 31.201 27.6477 31.2142 27.5421C31.2168 27.4745 31.2195 27.4333 31.2195 27.4333L28.5752 27.502C28.5752 27.502 28.5858 27.539 28.6017 27.6108C28.607 27.6456 28.648 27.842 28.7393 28.0912C28.7883 28.2296 28.8346 28.3077 28.8783 28.3816C28.9219 28.4629 28.9736 28.5516 29.0252 28.6446C29.1311 28.8135 29.2502 29.0036 29.3799 29.2116C29.8947 30.0163 30.5485 31.0491 31.0038 32.1526C31.242 32.7017 31.4074 33.2645 31.5239 33.802C31.6245 34.3438 31.6589 34.8538 31.6456 35.2973C31.6126 35.7366 31.5702 36.1115 31.4908 36.367C31.426 36.6247 31.3902 36.7747 31.3902 36.7747C31.3902 36.7747 31.4683 36.6353 31.5993 36.3945C31.7489 36.1527 31.8971 35.7958 32.0599 35.3501C32.1975 34.8992 32.31 34.3628 32.363 33.7788C32.3961 33.1948 32.3908 32.5655 32.3034 31.9414C32.1486 30.69 31.7555 29.463 31.4736 28.5886Z" fill="#BA94BB"/>
<path d="M12.9965 15.2263C13.4518 15.2263 14.4576 13.9666 15.077 13.7681C15.6964 13.5696 8.32062 9.37038 6.91509 8.71045C6.37643 9.43584 5.96483 9.65019 6.37908 10.6406C6.79201 11.631 12.5425 15.2263 12.9965 15.2263Z" fill="#BA94BB"/>
<path d="M10.0199 9.8479H10.1853C10.1853 9.8479 12.5424 7.50473 13.6131 6.84475C14.6838 6.18478 22.6763 6.74549 22.0967 2.65366C20.5244 4.30412 17.4234 5.95353 15.7267 5.16156C14.0314 4.36959 14.6521 1.89442 20.6898 0.113023C13.2055 -1.14145 6.29827 8.46143 6.96001 8.42869C7.62175 8.39596 9.13846 9.43819 10.0199 9.8479Z" fill="#BA94BB"/>
<path d="M2.68534 17.5107C2.99768 17.8856 3.33384 18.27 3.71633 18.6385C4.08955 19.0155 4.49189 19.3724 4.9604 19.7282C5.45406 20.1062 5.84713 20.3554 6.38182 20.6691C6.85695 20.9468 7.3281 21.2171 7.80059 21.4705C8.74423 21.9763 9.67199 22.4335 10.65 22.7271C11.1437 22.8707 11.6519 22.9689 12.1416 22.9953C12.6326 23.0154 13.0839 22.9752 13.4254 22.9087C13.7695 22.8432 14.1083 22.7408 14.193 22.7113C14.3227 22.6711 14.3875 22.649 14.3875 22.649L13.2599 20.7388C13.2599 20.7388 13.1951 20.7652 13.072 20.819C12.9119 20.8908 12.8748 20.9077 12.7226 20.9637C12.4248 21.065 12.0145 21.1474 11.2906 21.026C10.5772 20.9056 9.66007 20.6068 8.69261 20.2277C8.21351 20.0418 7.71191 19.8349 7.20237 19.6205C6.76298 19.4368 6.17403 19.158 5.78096 18.9183C5.34421 18.6723 4.89423 18.3703 4.49321 18.063C4.07764 17.761 3.69515 17.4337 3.33781 17.1105C2.61917 16.4611 2.00639 15.8043 1.51009 15.2257C0.529392 14.061 0 13.2141 0 13.2141C0 13.2141 0.374545 14.1096 1.16334 15.3883C1.55906 16.025 2.0633 16.7579 2.68534 17.5107Z" fill="#BA94BB"/>
<path d="M13.9508 25.6019C14.3439 25.5902 14.5239 25.6357 15.0361 25.5543C15.2505 25.5216 15.4398 25.4825 15.5999 25.4435C15.7653 25.4044 15.7733 25.3906 15.8487 25.3716C15.9625 25.3368 16.0221 25.3157 16.0221 25.3157L14.6907 23.4886C14.6907 23.4886 14.6364 23.5129 14.5332 23.5626C14.4974 23.5763 14.3863 23.6449 14.3783 23.628C14.3677 23.6143 14.3625 23.6059 14.3545 23.6059C14.4366 23.6143 14.066 23.6534 13.841 23.6861C13.575 23.7178 13.2388 23.7294 12.8868 23.7548C11.4389 23.8107 9.43116 23.7358 7.45521 23.4865C6.4626 23.3672 5.49249 23.1855 4.5859 22.9807C4.15048 22.855 3.70447 22.7568 3.31669 22.6163C2.93155 22.4695 2.53583 22.366 2.23011 22.1981C1.91512 22.0429 1.59616 21.914 1.38043 21.7429C1.16338 21.5792 0.911922 21.4662 0.80075 21.3152C0.53473 21.029 0.379883 20.8674 0.379883 20.8674C0.379883 20.8674 0.501643 21.0491 0.710753 21.3691C0.795456 21.5444 1.0178 21.6838 1.21235 21.8866C1.40558 22.0946 1.69542 22.2625 1.99585 22.4716C2.28966 22.6913 2.66421 22.8476 3.03478 23.0556C3.41462 23.2542 3.84343 23.4105 4.27753 23.6048C5.16691 23.9364 6.13834 24.2585 7.13625 24.5141C9.13206 25.04 11.1901 25.3906 12.8074 25.5396C13.2269 25.5628 13.5935 25.5998 13.9508 25.6019Z" fill="#BA94BB"/>
<path d="M18.7694 26.9123C18.8369 26.8468 18.8713 26.813 18.8713 26.813L16.6346 25.6831C16.6346 25.6831 16.6068 25.7222 16.5592 25.795C16.5314 25.8299 16.501 25.8742 16.4665 25.927C16.444 25.9429 16.4255 25.9577 16.4043 25.9819C16.407 26.0031 16.2283 26.1594 16.0655 26.3051C15.8802 26.4593 15.6738 26.6345 15.4488 26.8236C14.525 27.6071 13.2068 28.6832 12.246 29.9873C11.9971 30.3073 11.7801 30.641 11.5988 30.982C11.387 31.3115 11.2838 31.6758 11.1342 32.0042C11.031 32.3453 10.9582 32.6853 10.9013 32.9969C10.8934 33.3189 10.8656 33.6178 10.8801 33.8934C10.9251 34.1658 10.9662 34.4129 11.0072 34.6336C11.0482 34.8512 11.1475 35.0317 11.1991 35.1838C11.3156 35.4827 11.3844 35.6516 11.3844 35.6516C11.3844 35.6516 11.3566 35.4731 11.3103 35.1637C11.297 35.0096 11.2401 34.8269 11.2507 34.6136C11.2653 34.4024 11.2785 34.1616 11.2944 33.9018C11.3381 33.6442 11.4333 33.3717 11.5035 33.0877C11.6252 32.8089 11.7589 32.5206 11.9177 32.2334C12.1242 31.9567 12.2764 31.6579 12.5424 31.3939C12.7701 31.1162 13.0281 30.8511 13.318 30.604C14.4271 29.5829 15.8405 28.7866 16.9112 28.1636C17.1878 28.0052 17.4433 27.8563 17.6683 27.7243C17.9038 27.5765 18.0812 27.4857 18.3459 27.2745C18.4571 27.1815 18.555 27.0992 18.6437 27.0295C18.694 26.9883 18.735 26.9471 18.7694 26.9123Z" fill="#BA94BB"/>
<path d="M19.6626 27.5421C19.6758 27.6519 19.652 27.6541 19.6626 27.6583C19.6758 27.6456 19.6652 27.7058 19.6427 27.7818C19.6242 27.8484 19.6083 27.9244 19.5858 28.0025C19.5316 28.1778 19.472 28.3753 19.4045 28.5886C19.12 29.463 18.7269 30.688 18.5747 31.9393C18.4913 32.5634 18.4821 33.1939 18.5178 33.7757C18.5694 34.3639 18.6859 34.8972 18.8222 35.3471C18.981 35.7948 19.1253 36.1539 19.2801 36.3925C19.4125 36.6344 19.4866 36.7727 19.4866 36.7727C19.4866 36.7727 19.4508 36.6238 19.3886 36.364C19.3053 36.1127 19.2669 35.7346 19.2311 35.2964C19.2206 34.8518 19.255 34.3407 19.3529 33.8011C19.472 33.2615 19.6348 32.6986 19.8744 32.1516C20.327 31.047 20.9808 30.0153 21.4983 29.2106C21.628 29.0026 21.7471 28.8125 21.8543 28.6435C21.9046 28.5506 21.9535 28.4619 21.9999 28.3806C22.0409 28.3077 22.0872 28.2264 22.1375 28.0891C22.2288 27.841 22.2725 27.6456 22.2778 27.6108C22.295 27.5411 22.3029 27.5009 22.3029 27.5009L19.6586 27.4333C19.6586 27.4344 19.6586 27.4724 19.6626 27.5421Z" fill="#BA94BB"/>
<path d="M37.2608 16.9761C37.5097 14.2695 27.9131 11.7615 27.9131 11.7615C27.9131 11.7615 27.7133 9.67163 29.0712 8.92291C28.1606 7.6029 26.5063 12.355 26.5063 12.355C26.5063 12.355 25.5957 11.3644 24.2722 12.355C23.7759 12.355 23.6105 8.52691 22.287 8.59238C22.8667 10.1764 22.6179 12.4204 22.6179 12.4204C22.6179 12.4204 15.3387 14.203 14.1807 16.3805C13.0227 18.558 16.4968 26.6766 25.2648 27.0071C34.0329 27.3387 37.0133 19.6826 37.2608 16.9761Z" fill="#BA94BB"/>
<path d="M35.8016 13.7697C36.425 13.9682 37.4282 15.228 37.8821 15.228C38.3361 15.228 44.0866 11.6313 44.4995 10.6408C44.9125 9.65028 44.5022 9.43592 43.9649 8.71045C42.558 9.37044 35.1809 13.5712 35.8016 13.7697Z" fill="#BA94BB"/>
<path d="M37.2663 6.84475C38.337 7.50473 40.6941 9.8479 40.6941 9.8479H40.8596C41.7437 9.43819 43.2577 8.39596 43.9195 8.42869C44.5812 8.46143 37.6726 -1.14145 30.1884 0.113023C36.2261 1.89548 36.8455 4.36959 35.1514 5.16156C33.456 5.95353 30.3538 4.30306 28.7828 2.65366C28.2045 6.74549 36.197 6.18478 37.2663 6.84475Z" fill="#BA94BB"/>
<path d="M42.1777 20.2284C41.2129 20.6044 40.2931 20.9064 39.5797 21.0268C38.8558 21.1471 38.4455 21.0658 38.1504 20.9655C37.9982 20.9085 37.9584 20.8948 37.7983 20.8198C37.6739 20.7659 37.609 20.7385 37.609 20.7385L36.4814 22.6498C36.4814 22.6498 36.5516 22.672 36.6773 22.7121C36.762 22.7385 37.1008 22.8441 37.4423 22.9085C37.789 22.9761 38.2364 23.0162 38.7274 22.9972C39.2157 22.9708 39.7279 22.8716 40.2216 22.729C41.1983 22.4344 42.1261 21.9782 43.0671 21.4713C43.5396 21.2179 44.0134 20.9476 44.4858 20.6709C45.0205 20.3552 45.4162 20.1102 45.9099 19.7279C46.3784 19.3752 46.7781 19.0162 47.1513 18.6392C47.5365 18.2696 47.8726 17.8863 48.1823 17.5114C48.8083 16.7585 49.3126 16.0267 49.7043 15.3889C50.4931 14.1101 50.8703 13.2146 50.8703 13.2146C50.8703 13.2146 50.3409 14.0615 49.3536 15.2252C48.8573 15.8039 48.2472 16.4607 47.5285 17.1101C47.1699 17.4343 46.786 17.7606 46.3731 18.0626C45.9695 18.3699 45.5195 18.6709 45.0854 18.918C44.6897 19.1598 44.1034 19.4365 43.6613 19.6202C43.165 19.8346 42.6634 20.0426 42.1777 20.2284Z" fill="#BA94BB"/>
<path d="M49.4958 21.7463C49.2814 21.9174 48.9664 22.043 48.6448 22.2014C48.3417 22.3682 47.9447 22.4748 47.5622 22.6195C47.1718 22.7599 46.7271 22.8581 46.2903 22.9838C45.3851 23.1886 44.4136 23.3702 43.4237 23.4895C41.449 23.7387 39.4347 23.8137 37.9921 23.7577C37.6387 23.7324 37.3026 23.7207 37.0366 23.6891C36.8116 23.6563 36.4436 23.6173 36.5217 23.6088C36.5151 23.6088 36.5072 23.6173 36.4966 23.631C36.4913 23.6521 36.3761 23.5793 36.3417 23.5655C36.2412 23.5159 36.1869 23.4916 36.1869 23.4916L34.8555 25.3172C34.8555 25.3172 34.915 25.3383 35.0262 25.3732C35.103 25.3953 35.1096 25.4059 35.275 25.445C35.4352 25.484 35.6244 25.5231 35.8388 25.5558C36.3563 25.6371 36.531 25.5917 36.9267 25.6033C37.2841 25.6012 37.648 25.5643 38.0636 25.5379C39.6796 25.39 41.7362 25.0395 43.732 24.5137C44.7299 24.2592 45.704 23.9361 46.5908 23.6036C47.0249 23.4103 47.4537 23.2551 47.8335 23.0556C48.2067 22.8507 48.5799 22.6902 48.8751 22.4717C49.1755 22.2658 49.4614 22.0979 49.6586 21.8857C49.8518 21.684 50.0715 21.5457 50.1602 21.3683C50.3693 21.0505 50.4884 20.8689 50.4884 20.8689C50.4884 20.8689 50.3362 21.0294 50.0675 21.3145C49.967 21.4707 49.7155 21.5827 49.4958 21.7463Z" fill="#BA94BB"/>
<path d="M39.7429 32.0063C39.5986 31.6779 39.4941 31.3136 39.2797 30.9841C39.0957 30.643 38.8787 30.3061 38.6312 29.9893C37.6717 28.6852 36.3561 27.6091 35.431 26.8255C35.206 26.6323 34.9996 26.4602 34.8156 26.307C34.6502 26.1613 34.4715 26.005 34.4715 25.9839C34.4503 25.9617 34.4331 25.9448 34.4093 25.9301C34.3762 25.8762 34.3418 25.8318 34.3219 25.7981C34.2703 25.7241 34.2412 25.6851 34.2412 25.6851L32.0059 26.815C32.0059 26.815 32.0389 26.8477 32.1091 26.9142C32.1395 26.947 32.1845 26.9882 32.2361 27.0357C32.3182 27.1043 32.4228 27.1899 32.5339 27.2796C32.7947 27.4908 32.976 27.5816 33.2115 27.7295C33.4392 27.8615 33.6893 28.0093 33.9659 28.1688C35.0393 28.7908 36.4501 29.587 37.5592 30.6081C37.8517 30.8563 38.1071 31.1235 38.3374 31.4002C38.6007 31.6642 38.7529 31.9609 38.9607 32.2376C39.1209 32.5237 39.2585 32.8131 39.3736 33.0929C39.4491 33.3791 39.5391 33.6484 39.5828 33.9071C39.6013 34.169 39.6132 34.4087 39.6291 34.6199C39.637 34.8332 39.5801 35.017 39.5669 35.1711C39.5206 35.4805 39.4914 35.658 39.4914 35.658C39.4914 35.658 39.5616 35.4869 39.678 35.1901C39.727 35.036 39.825 34.8586 39.8713 34.64C39.9057 34.4193 39.9507 34.1732 39.997 33.9008C40.0155 33.6241 39.9824 33.3274 39.9745 33.0032C39.9216 32.6853 39.8488 32.3474 39.7429 32.0063Z" fill="#BA94BB"/>
<path d="M31.4736 28.5886C31.4061 28.3753 31.3439 28.1778 31.2896 28.0025C31.2685 27.9244 31.2539 27.8484 31.2354 27.7818C31.2116 27.7058 31.2023 27.6456 31.2142 27.6583C31.2221 27.6541 31.201 27.6477 31.2142 27.5421C31.2168 27.4745 31.2195 27.4333 31.2195 27.4333L28.5752 27.502C28.5752 27.502 28.5858 27.539 28.6017 27.6108C28.607 27.6456 28.648 27.842 28.7393 28.0912C28.7883 28.2296 28.8346 28.3077 28.8783 28.3816C28.9219 28.4629 28.9736 28.5516 29.0252 28.6446C29.1311 28.8135 29.2502 29.0036 29.3799 29.2116C29.8947 30.0163 30.5485 31.0491 31.0038 32.1526C31.242 32.7017 31.4074 33.2645 31.5239 33.802C31.6245 34.3438 31.6589 34.8538 31.6456 35.2973C31.6126 35.7366 31.5702 36.1115 31.4908 36.367C31.426 36.6247 31.3902 36.7747 31.3902 36.7747C31.3902 36.7747 31.4683 36.6353 31.5993 36.3945C31.7489 36.1527 31.8971 35.7958 32.0599 35.3501C32.1975 34.8992 32.31 34.3628 32.363 33.7788C32.3961 33.1948 32.3908 32.5655 32.3034 31.9414C32.1486 30.69 31.7555 29.463 31.4736 28.5886Z" fill="#BA94BB"/>
<path d="M12.9965 15.2263C13.4518 15.2263 14.4576 13.9666 15.077 13.7681C15.6964 13.5696 8.32062 9.37038 6.91509 8.71045C6.37643 9.43584 5.96483 9.65019 6.37908 10.6406C6.79201 11.631 12.5425 15.2263 12.9965 15.2263Z" fill="#BA94BB"/>
<path d="M10.0199 9.8479H10.1853C10.1853 9.8479 12.5424 7.50473 13.6131 6.84475C14.6838 6.18478 22.6763 6.74549 22.0967 2.65366C20.5244 4.30412 17.4234 5.95353 15.7267 5.16156C14.0314 4.36959 14.6521 1.89442 20.6898 0.113023C13.2055 -1.14145 6.29827 8.46143 6.96001 8.42869C7.62175 8.39596 9.13846 9.43819 10.0199 9.8479Z" fill="#BA94BB"/>
<path d="M2.68534 17.5107C2.99768 17.8856 3.33384 18.27 3.71633 18.6385C4.08955 19.0155 4.49189 19.3724 4.9604 19.7282C5.45406 20.1062 5.84713 20.3554 6.38182 20.6691C6.85695 20.9468 7.3281 21.2171 7.80059 21.4705C8.74423 21.9763 9.67199 22.4335 10.65 22.7271C11.1437 22.8707 11.6519 22.9689 12.1416 22.9953C12.6326 23.0154 13.0839 22.9752 13.4254 22.9087C13.7695 22.8432 14.1083 22.7408 14.193 22.7113C14.3227 22.6711 14.3875 22.649 14.3875 22.649L13.2599 20.7388C13.2599 20.7388 13.1951 20.7652 13.072 20.819C12.9119 20.8908 12.8748 20.9077 12.7226 20.9637C12.4248 21.065 12.0145 21.1474 11.2906 21.026C10.5772 20.9056 9.66007 20.6068 8.69261 20.2277C8.21351 20.0418 7.71191 19.8349 7.20237 19.6205C6.76298 19.4368 6.17403 19.158 5.78096 18.9183C5.34421 18.6723 4.89423 18.3703 4.49321 18.063C4.07764 17.761 3.69515 17.4337 3.33781 17.1105C2.61917 16.4611 2.00639 15.8043 1.51009 15.2257C0.529392 14.061 0 13.2141 0 13.2141C0 13.2141 0.374545 14.1096 1.16334 15.3883C1.55906 16.025 2.0633 16.7579 2.68534 17.5107Z" fill="#BA94BB"/>
<path d="M13.9508 25.6019C14.3439 25.5902 14.5239 25.6357 15.0361 25.5543C15.2505 25.5216 15.4398 25.4825 15.5999 25.4435C15.7653 25.4044 15.7733 25.3906 15.8487 25.3716C15.9625 25.3368 16.0221 25.3157 16.0221 25.3157L14.6907 23.4886C14.6907 23.4886 14.6364 23.5129 14.5332 23.5626C14.4974 23.5763 14.3863 23.6449 14.3783 23.628C14.3677 23.6143 14.3625 23.6059 14.3545 23.6059C14.4366 23.6143 14.066 23.6534 13.841 23.6861C13.575 23.7178 13.2388 23.7294 12.8868 23.7548C11.4389 23.8107 9.43116 23.7358 7.45521 23.4865C6.4626 23.3672 5.49249 23.1855 4.5859 22.9807C4.15048 22.855 3.70447 22.7568 3.31669 22.6163C2.93155 22.4695 2.53583 22.366 2.23011 22.1981C1.91512 22.0429 1.59616 21.914 1.38043 21.7429C1.16338 21.5792 0.911922 21.4662 0.80075 21.3152C0.53473 21.029 0.379883 20.8674 0.379883 20.8674C0.379883 20.8674 0.501643 21.0491 0.710753 21.3691C0.795456 21.5444 1.0178 21.6838 1.21235 21.8866C1.40558 22.0946 1.69542 22.2625 1.99585 22.4716C2.28966 22.6913 2.66421 22.8476 3.03478 23.0556C3.41462 23.2542 3.84343 23.4105 4.27753 23.6048C5.16691 23.9364 6.13834 24.2585 7.13625 24.5141C9.13206 25.04 11.1901 25.3906 12.8074 25.5396C13.2269 25.5628 13.5935 25.5998 13.9508 25.6019Z" fill="#BA94BB"/>
<path d="M18.7694 26.9123C18.8369 26.8468 18.8713 26.813 18.8713 26.813L16.6346 25.6831C16.6346 25.6831 16.6068 25.7222 16.5592 25.795C16.5314 25.8299 16.501 25.8742 16.4665 25.927C16.444 25.9429 16.4255 25.9577 16.4043 25.9819C16.407 26.0031 16.2283 26.1594 16.0655 26.3051C15.8802 26.4593 15.6738 26.6345 15.4488 26.8236C14.525 27.6071 13.2068 28.6832 12.246 29.9873C11.9971 30.3073 11.7801 30.641 11.5988 30.982C11.387 31.3115 11.2838 31.6758 11.1342 32.0042C11.031 32.3453 10.9582 32.6853 10.9013 32.9969C10.8934 33.3189 10.8656 33.6178 10.8801 33.8934C10.9251 34.1658 10.9662 34.4129 11.0072 34.6336C11.0482 34.8512 11.1475 35.0317 11.1991 35.1838C11.3156 35.4827 11.3844 35.6516 11.3844 35.6516C11.3844 35.6516 11.3566 35.4731 11.3103 35.1637C11.297 35.0096 11.2401 34.8269 11.2507 34.6136C11.2653 34.4024 11.2785 34.1616 11.2944 33.9018C11.3381 33.6442 11.4333 33.3717 11.5035 33.0877C11.6252 32.8089 11.7589 32.5206 11.9177 32.2334C12.1242 31.9567 12.2764 31.6579 12.5424 31.3939C12.7701 31.1162 13.0281 30.8511 13.318 30.604C14.4271 29.5829 15.8405 28.7866 16.9112 28.1636C17.1878 28.0052 17.4433 27.8563 17.6683 27.7243C17.9038 27.5765 18.0812 27.4857 18.3459 27.2745C18.4571 27.1815 18.555 27.0992 18.6437 27.0295C18.694 26.9883 18.735 26.9471 18.7694 26.9123Z" fill="#BA94BB"/>
<path d="M19.6626 27.5421C19.6758 27.6519 19.652 27.6541 19.6626 27.6583C19.6758 27.6456 19.6652 27.7058 19.6427 27.7818C19.6242 27.8484 19.6083 27.9244 19.5858 28.0025C19.5316 28.1778 19.472 28.3753 19.4045 28.5886C19.12 29.463 18.7269 30.688 18.5747 31.9393C18.4913 32.5634 18.4821 33.1939 18.5178 33.7757C18.5694 34.3639 18.6859 34.8972 18.8222 35.3471C18.981 35.7948 19.1253 36.1539 19.2801 36.3925C19.4125 36.6344 19.4866 36.7727 19.4866 36.7727C19.4866 36.7727 19.4508 36.6238 19.3886 36.364C19.3053 36.1127 19.2669 35.7346 19.2311 35.2964C19.2206 34.8518 19.255 34.3407 19.3529 33.8011C19.472 33.2615 19.6348 32.6986 19.8744 32.1516C20.327 31.047 20.9808 30.0153 21.4983 29.2106C21.628 29.0026 21.7471 28.8125 21.8543 28.6435C21.9046 28.5506 21.9535 28.4619 21.9999 28.3806C22.0409 28.3077 22.0872 28.2264 22.1375 28.0891C22.2288 27.841 22.2725 27.6456 22.2778 27.6108C22.295 27.5411 22.3029 27.5009 22.3029 27.5009L19.6586 27.4333C19.6586 27.4344 19.6586 27.4724 19.6626 27.5421Z" fill="#BA94BB"/>
</svg>
