<svg width="49" height="33" viewBox="0 0 49 33" fill="none" xmlns="http://www.w3.org/2000/svg">
<path d="M47.551 5.37409C41.7154 -6.49271 30.0411 7.73504 28.8413 7.73504C28.0471 7.73504 26.23 7.73504 25.0958 7.73504C24.5241 7.73504 24.1232 7.73504 24.1232 7.73504C22.9905 7.73504 21.1749 7.73504 20.3791 7.73504C19.1809 7.73504 7.50662 -6.49271 1.66949 5.37409C-4.16764 17.2409 9.50671 18.2626 9.50671 18.2626C9.50671 18.2626 2.70917 12.8389 5.7474 9.45619C8.78564 6.07593 15.9826 12.0726 15.9826 12.0726C15.9826 12.0726 12.3849 17.0487 13.5846 18.8355C14.7844 20.6224 17.5817 20.3025 18.1412 21.7706C18.7007 23.2363 18.9354 29.5918 18.9354 29.5918C19.1839 30.0832 20.7572 32.5512 24.4601 32.9356C24.4982 32.9404 24.5378 32.938 24.5759 32.9368C24.5881 32.938 24.6003 32.9356 24.611 32.9368C24.6232 32.9356 24.6354 32.938 24.6445 32.9368C24.6826 32.938 24.7238 32.9404 24.7604 32.9356C28.4618 32.5512 30.0365 30.0832 30.285 29.5918C30.285 29.5918 30.5182 23.2363 31.0792 21.7706C31.6372 20.3025 34.433 20.6224 35.6328 18.8355C36.8325 17.0487 33.2379 12.0726 33.2379 12.0726C33.2379 12.0726 40.4348 6.07471 43.4731 9.45619C46.5113 12.8377 39.7138 18.2614 39.7138 18.2614C39.7138 18.2614 53.3881 17.2409 47.551 5.37409Z" fill="#BA94BB"/>
</svg>
