<svg width="41" height="34" viewBox="0 0 41 34" fill="none" xmlns="http://www.w3.org/2000/svg">
<path d="M23.2778 14.5585C20.3678 12.5895 15.9394 14.5005 14.37 15.3346C13.0634 14.4105 10.0142 13.1101 7.79383 14.7707C7.65467 14.8756 7.58354 15.0162 7.58354 15.1569C7.58354 15.2864 7.6423 15.4172 7.76445 15.5196C8.01494 15.7355 8.43706 15.7454 8.70456 15.5443C10.3034 14.3488 12.5593 15.5566 13.2567 15.9835C12.6351 16.3746 12.029 16.8052 11.4414 17.2666C10.1565 16.5338 7.56499 15.7405 5.49149 17.2925C5.35233 17.3974 5.2812 17.538 5.2812 17.6774C5.2812 17.807 5.33996 17.9378 5.46211 18.0414C5.71415 18.2585 6.13472 18.2684 6.40222 18.0673C7.91908 16.9323 9.75446 17.6626 10.4997 18.0414C9.92763 18.5374 9.37563 19.0531 8.84836 19.5786C7.62375 19.0099 4.93794 18.4115 2.82887 19.9858C2.68971 20.0894 2.61859 20.2313 2.61859 20.3719C2.61859 20.5003 2.67734 20.6335 2.7995 20.7359C3.05153 20.9493 3.47211 20.9617 3.73961 20.7593C5.38325 19.5305 7.37016 20.1684 8.02422 20.4299C7.3547 21.148 6.73621 21.8722 6.17029 22.5754C4.85444 22.0412 2.37583 21.6106 0.399741 23.0887C0.26058 23.1935 0.189453 23.3329 0.189453 23.4736C0.189453 23.6031 0.24821 23.7339 0.370363 23.8375C0.620853 24.0522 1.04297 24.0645 1.31047 23.8634C2.85671 22.7062 4.69673 23.2009 5.46056 23.481C3.68703 25.8202 2.62786 27.7411 2.62786 28.0162C2.62786 28.7244 5.46056 31.2104 6.56921 31.2104C6.91402 31.2104 9.31996 30.3628 12.2532 28.9502C12.6073 29.556 13.2242 31.0278 11.7754 32.2616C11.5233 32.4762 11.5373 32.8106 11.8063 33.0117C11.9346 33.1079 12.0985 33.1536 12.2609 33.1536C12.4387 33.1536 12.615 33.0956 12.7464 32.9845C14.5988 31.409 14.0545 29.4301 13.3897 28.3827C14.271 27.9323 15.1786 27.4351 16.0786 26.9046C16.4094 27.4277 17.2073 29.0106 15.6657 30.3233C15.4137 30.5393 15.4276 30.8724 15.6966 31.0722C15.825 31.1685 15.9889 31.2166 16.1512 31.2166C16.329 31.2166 16.5053 31.1586 16.6367 31.0463C18.6113 29.366 17.8614 27.2217 17.1439 26.2433C17.8072 25.8226 18.452 25.3834 19.0705 24.9257C19.5498 25.5204 20.459 26.9861 19.038 28.1951C18.786 28.4098 18.803 28.7442 19.0705 28.9453C19.1973 29.039 19.3612 29.0871 19.5236 29.0871C19.7014 29.0871 19.8776 29.0291 20.0075 28.9181C21.9542 27.2637 20.9585 25.1947 20.04 24.1707C20.6167 23.7018 21.1564 23.2194 21.6465 22.7198C22.1846 23.2774 23.6968 25.0775 22.1955 26.3519C21.945 26.5666 21.9604 26.9022 22.2279 27.102C22.3547 27.1983 22.5186 27.2451 22.6825 27.2451C22.8588 27.2451 23.0366 27.1872 23.1649 27.0749C25.2477 25.302 23.6149 22.8715 22.4599 21.829C23.4247 20.6878 26.1878 16.5264 23.2778 14.5585Z" fill="#BA94BB"/>
<path d="M36.4096 4.31949C34.5804 5.36818 34.8216 11.7689 34.8216 11.7689C34.8216 11.7689 33.379 9.68013 34.8495 5.33733C34.8742 5.30032 34.9036 5.26947 34.9314 5.23246C34.9098 5.23616 34.8958 5.2374 34.8757 5.24233C34.8773 5.23863 34.8773 5.2374 34.8773 5.23493C34.8696 5.2374 34.8618 5.24233 34.8556 5.24603C29.3742 6.43413 26.741 5.27441 26.741 5.27441C26.741 5.27441 34.7629 5.46687 36.0756 4.00735C27.2744 -2.51796 17.4218 2.2764 15.1922 4.40955C11.8229 7.25335 12.0518 12.313 14.9339 14.5584C16.157 13.8169 17.5115 13.2087 18.8413 13.2753C19.9762 13.1112 14.2675 12.1254 15.4906 7.23607L24.6969 8.37852C24.6969 8.37852 28.646 8.9843 31.8807 7.63828C30.169 10.223 30.9359 13.3987 30.9359 13.3987L32.3662 20.7432C26.2385 21.7215 25.3154 17.412 25.1128 18.3164C25.1948 19.3749 24.4448 20.3484 23.5186 21.3243C26.3312 23.6227 32.3492 23.6684 35.9133 20.9825C38.5821 19.2034 44.5861 11.342 36.4096 4.31949Z" fill="#BA94BB"/>
<path d="M11.1856 28.6267C9.66102 28.1615 6.16812 31.3709 7.24892 32.0347C8.32973 32.6985 13.7461 33.0317 14.3461 32.1889C14.9445 31.3474 12.2386 28.8932 11.1856 28.6267Z" fill="#BA94BB"/>
<path d="M8.47821 28.5803C8.47821 28.5803 6.88869 25.3531 5.89137 24.9558C4.89405 24.5586 2.56543 25.0878 1.73356 25.7972C0.901688 26.5053 4.95281 31.3845 6.33514 30.9083C7.71592 30.4234 8.47821 28.5803 8.47821 28.5803Z" fill="#BA94BB"/>
<path d="M5.47453 24.2261C5.66787 24.0472 5.53021 21.8147 5.47453 21.3939C5.41886 20.9718 1.92344 20.7744 1.61875 20.9965C1.31406 21.2174 0.649 24.6827 1.45326 24.8209C2.25906 24.9554 5.2812 24.4026 5.47453 24.2261Z" fill="#BA94BB"/>
<path d="M5.41842 20.754C5.77879 20.6232 6.11132 18.033 6.33249 17.7454C6.55366 17.4579 4.61572 16.6348 3.9785 16.7446C3.33974 16.8557 1.47913 19.7347 1.9787 20.0888C2.47981 20.443 5.05806 20.886 5.41842 20.754Z" fill="#BA94BB"/>
<path d="M6.80327 17.2346C12.0434 15.0447 11.0724 11.6827 11.0724 11.6827C11.0724 11.6827 10.7956 10.444 11.6816 9.55934C11.1265 8.87337 8.77006 10.3995 8.77006 10.3995C8.77006 10.3995 3.33665 10.9745 4.69578 16.1057C5.08542 16.6597 6.24972 17.1458 6.80327 17.2346Z" fill="#BA94BB"/>
</svg>
