<svg width="34" height="34" viewBox="0 0 34 34" fill="none" xmlns="http://www.w3.org/2000/svg">
<path d="M24.5638 25.1929V8.89255C27.4712 8.37544 29.7487 7.47884 31.3428 6.19129C33.5511 4.40747 33.6387 2.56736 33.6334 2.21706C33.6165 1.16721 32.5698 0.364439 31.254 0.326906C29.9251 0.297715 28.821 1.13802 28.7177 2.1837C28.6067 3.32947 26.2115 5.48965 17.9586 5.48965C9.53312 5.48965 6.77342 3.20853 6.48857 1.99291C6.3187 0.947228 5.15053 0.164268 3.81511 0.288332C2.4627 0.38946 1.46963 1.34548 1.59637 2.42557C1.62381 2.64347 2.22619 6.64063 9.44819 8.487V25.2252C1.41083 26.9621 0.764021 31.2627 0.736581 31.491C0.612446 32.5377 1.55325 33.4333 2.85993 33.574C4.16268 33.7148 5.38965 32.9693 5.62224 31.9351C5.89403 30.7206 8.64458 28.4269 17.0949 28.4269C25.3478 28.4269 27.743 30.5882 27.854 31.6557C27.837 32.7379 28.9255 33.6282 30.2831 33.6387C30.2923 33.6387 30.304 33.6387 30.3106 33.6387C31.6538 33.6387 32.7541 32.7744 32.7697 31.7006C32.7737 31.3503 32.6887 29.5091 30.4791 27.7263C29.0496 26.5691 27.0583 25.7288 24.5638 25.1929ZM14.3639 24.5778V9.26057C15.4733 9.35128 16.6427 9.41383 17.9533 9.41383C18.5361 9.41383 19.0901 9.39298 19.6442 9.37526V24.5726C18.8262 24.5278 17.9821 24.4996 17.0935 24.4996C16.1279 24.4986 15.2185 24.5267 14.3639 24.5778Z" fill="#BA94BB"/>
</svg>
