<svg width="44" height="35" viewBox="0 0 44 35" fill="none" xmlns="http://www.w3.org/2000/svg">
<path d="M42.3025 22.1737C44.3236 20.2027 47.1316 6.40554 33.0951 1.74677C19.0604 -2.912 12.3233 4.07616 12.4347 6.94309C7.71874 8.28625 6.70728 12.4978 6.70728 12.4978C6.70728 12.4978 -0.142995 15.1855 0.0815751 18.4108C0.306145 21.6362 5.24668 21.8153 5.24668 21.8153L6.74501 23.4581L7.04324 21.8153C7.04324 21.8153 14.4253 19.0975 14.763 21.4742C15.1008 23.848 8.28106 24.6823 8.28106 24.6823L6.89592 23.8767L7.31811 25.3804C7.31811 25.3804 5.8108 25.7588 6.48451 26.9214C7.83193 28.7132 12.3233 26.2935 12.3233 26.2935C12.3233 26.2935 8.84518 36.7678 18.834 34.4471C12.6575 31.9385 18.2717 28.0853 18.2717 28.0853C18.2717 28.0853 19.5078 38.1196 31.7459 32.0274C22.0894 32.8344 24.3028 28.9511 25.3466 28.0853C26.3886 27.2195 31.7459 22.7743 31.7459 22.7743C31.7459 22.7743 34.5539 26.1143 27.7037 30.2097C36.6864 32.1205 37.1356 19.0401 37.1356 19.0401C37.1356 19.0401 39.2699 25.3116 33.6539 29.5217C46.4543 27.2826 40.0532 14.4702 40.0532 14.4702C40.0532 14.4702 42.4139 15.0952 42.3025 22.1737ZM8.49665 12.1394C8.28106 11.4901 8.89908 10.974 9.54405 10.8851C10.189 10.7963 12.5389 11.3496 13.2198 11.6406C13.9007 11.9316 8.71224 12.7888 8.49665 12.1394Z" fill="#BA94BB"/>
</svg>
