<svg width="50" height="36" viewBox="0 0 50 36" fill="none" xmlns="http://www.w3.org/2000/svg">
<path d="M47.2279 24.0814L42.1145 11.3627H40.8187V10.6669C43.353 10.1685 43.3963 8.17476 43.3963 8.17476C43.3963 8.17476 42.4361 9.07416 40.8187 9.42331V8.87306H39.8075V9.55779C39.7658 9.55902 39.7271 9.56765 39.6838 9.56889C37.3799 9.6133 36.3408 6.5635 33.4417 6.5635C30.7419 6.5635 27.7268 7.84535 25.777 8.02301V4.5525C27.1562 4.38101 28.2108 3.4409 28.2108 2.29352C28.2139 1.02771 26.9243 0 25.3363 0C23.7499 0 22.4619 1.02771 22.4619 2.29352C22.4619 3.50259 23.6401 4.48341 25.1291 4.57224V7.9971C23.1793 7.75159 20.2863 6.5635 17.6825 6.5635C14.7833 6.5635 13.7473 9.6133 11.4419 9.56889C11.2548 9.56395 11.0831 9.54051 10.9069 9.52201V8.87306H9.89564V9.33324C8.52413 8.93598 7.73092 8.176 7.73092 8.176C7.73092 8.176 7.77421 9.94148 9.89564 10.562V11.3627H8.60144L3.39837 24.0826H0.421875C0.421875 24.0826 2.55722 27.3384 10.2049 27.3384C17.8526 27.3384 19.9879 24.0826 19.9879 24.0826H17.3145L12.2042 11.364H10.9069V10.752C11.111 10.7693 11.3244 10.7792 11.5547 10.7792C15.3229 10.7792 15.8842 8.87306 17.9654 8.87306C19.8379 8.87306 22.032 10.7286 24.7364 11.1037C24.8523 11.1296 25.4198 11.0987 25.2497 11.132L25.1616 18.2594L23.4437 21.0353L23.5025 29.3976H18.7803V30.8768L14.9843 35.8574H36.5743L31.9356 30.809V29.3951H27.8041V21.1093L26.0646 18.1927L26.063 11.1148C26.2192 11.1135 26.213 11.1407 26.3924 11.1024C29.0968 10.7274 31.2909 8.87183 33.1633 8.87183C35.2461 8.87183 35.8059 10.778 39.574 10.778C39.6606 10.778 39.7317 10.7706 39.809 10.7681V11.3603H38.5164L33.3133 24.0789H30.3353C30.3353 24.0789 32.4706 27.3347 40.1183 27.3347C47.766 27.3347 49.9013 24.0814 49.9013 24.0814H47.2279ZM9.89564 24.0814H4.46373L9.33436 12.1721H9.89564V24.0814ZM11.4666 12.1708L16.2537 24.0789H10.9069V12.1708H11.4666ZM39.809 24.0814H34.3756L39.2462 12.1721H39.8075V24.0814H39.809ZM40.8203 24.0814V12.1708H41.3785L46.1656 24.0789L40.8203 24.0814Z" fill="#BA94BB"/>
</svg>
