<svg width="43" height="37" viewBox="0 0 43 37" fill="none" xmlns="http://www.w3.org/2000/svg">
<path d="M20.4078 17.0153C20.4078 17.0153 20.615 17.3659 20.8077 17.4049C22.2052 17.6818 28.4319 18.8721 30.2227 17.9308C31.1792 17.396 27.6746 14.8793 27.6746 14.8793C27.6746 14.8793 31.8116 16.4849 32.517 15.8976C35.0783 12.4318 28.4771 6.73061 26.7992 5.38516C26.378 4.98655 26.0672 5.28578 26.0672 5.28578L18.2344 9.84693L20.4078 17.0153ZM27.6428 10.5426C28.3296 10.5426 28.8849 11.0104 28.8849 11.5865C28.8849 12.1638 28.3296 12.6316 27.6428 12.6316C26.9573 12.6316 26.4006 12.1638 26.4006 11.5865C26.402 11.0104 26.9586 10.5426 27.6428 10.5426Z" fill="#BA94BB"/>
<path d="M18.3989 16.7106C19.2571 16.7508 19.01 15.9502 19.01 15.9502L17.0372 9.36676L25.4133 4.75857C25.4133 4.75857 25.9713 4.44816 25.4412 4.16789C24.1074 3.21209 20.2016 0.498764 18.8864 0.588092C17.2936 0.695285 17.6762 4.22819 16.5297 4.0138C4.55462 4.49394 0.304758 21.8581 0.861398 22.4264C1.41804 22.9959 1.87238 23.3968 2.89798 22.7491C3.94351 24.6574 1.52565 28.982 0.719249 30.7507C0.509347 31.2855 1.0434 31.1448 1.4114 30.8802C3.26066 29.327 4.57056 28.7754 5.31186 28.8357C6.05183 28.8971 7.76161 29.442 8.75399 29.9076C9.22827 30.2013 9.77826 30.1198 9.27609 29.5179C1.53627 15.824 14.7615 16.3957 18.3989 16.7106Z" fill="#BA94BB"/>
<path d="M22.6617 19.8837C22.6617 19.8837 22.4571 19.5342 22.2618 19.4929C20.8669 19.216 14.6403 18.0269 12.8481 18.9659C11.8929 19.5008 15.3948 22.0163 15.3948 22.0163C15.3948 22.0163 11.2566 20.413 10.5551 21.0014C7.99116 24.4671 14.5938 30.1681 16.2716 31.5135C16.6928 31.911 17.0036 31.6129 17.0036 31.6129L24.8364 27.0507L22.6617 19.8837ZM15.4267 26.3563C14.7412 26.3563 14.1846 25.8884 14.1846 25.3112C14.1846 24.7339 14.7412 24.265 15.4267 24.265C16.1136 24.265 16.6689 24.7339 16.6689 25.3112C16.6689 25.8884 16.1136 26.3563 15.4267 26.3563Z" fill="#BA94BB"/>
<path d="M41.6609 6.01934C39.8116 7.57251 38.5004 8.1241 37.7591 8.06381C37.0164 8.00351 35.3093 7.4575 34.3183 6.99188C33.8427 6.69822 33.294 6.77973 33.7935 7.38157C41.5307 21.0765 28.3055 20.5048 24.668 20.1888C23.8098 20.1497 24.0583 20.9514 24.0583 20.9514L26.0298 27.5348L17.6549 32.143C17.6549 32.143 17.0969 32.4534 17.627 32.7337C18.9608 33.6872 22.8679 36.4028 24.1831 36.3146C25.772 36.204 25.3907 32.6711 26.5372 32.8889C38.5123 32.4065 42.7622 15.0458 42.2042 14.4752C41.6463 13.9069 41.1919 13.506 40.1676 14.1537C39.1221 12.2454 41.54 7.91977 42.3504 6.15221C42.5603 5.61513 42.0275 5.75806 41.6609 6.01934Z" fill="#BA94BB"/>
</svg>
