<svg width="41" height="37" viewBox="0 0 41 37" fill="none" xmlns="http://www.w3.org/2000/svg">
<path d="M40.9971 17.9701L34.8122 16.3691V17.5905H27.7131C28.1343 15.6741 30.3852 15.8129 30.2055 11.8115C30.0086 7.40297 20.7952 7.2447 21.1244 0C21.0769 0.0539023 21.0381 0.104364 20.9921 0.15712L21.0252 0L4.40806 16.5629L0.725586 16.2556L2.56826 18.2511L0.778768 20.2134L4.76165 19.7776L21.1244 36.6995L21.1847 35.3485C21.9868 29.4192 30.0201 29.004 30.2041 24.8868C30.4024 20.4749 27.6398 21.1068 27.6398 18.4552C27.6398 18.4461 27.6398 18.4369 27.6398 18.4289H27.6513C27.6513 18.4036 27.6485 18.3773 27.6456 18.352H34.8107V20.0998L40.9971 17.9701ZM19.4211 3.39011C19.2616 7.34219 26.7185 8.90306 26.7185 11.8126C26.7185 15.017 25.159 15.2429 24.7968 17.5917H8.96444L7.63489 16.8336L5.82672 16.6822L19.4211 3.39011ZM24.7263 18.4254C24.8615 21.4474 26.7185 21.3935 26.7185 24.8857C26.7185 27.8308 19.0718 29.3917 19.424 33.4539L6.0955 19.6331L7.70101 19.4576L9.36689 18.3497H24.7192C24.7192 18.3761 24.7163 18.4002 24.7163 18.4254H24.7263Z" fill="#BA94BB"/>
</svg>
