<svg width="52" height="36" viewBox="0 0 52 36" fill="none" xmlns="http://www.w3.org/2000/svg">
<path d="M45.1013 15.1267C45.1013 15.1267 59.2045 7.37887 46.544 0C46.9768 1.31787 47.1655 2.4793 47.1821 3.51529C48.414 3.90933 49.7327 4.61917 49.8419 5.87653C48.9356 5.01616 47.9775 4.50259 47.1414 4.19415C47.0989 4.85234 46.9787 5.45594 46.7919 6.00345C47.8535 6.43142 48.8523 7.11766 48.93 8.20973C48.1384 7.44085 47.3098 6.95827 46.5477 6.63656C46.3054 7.15898 45.9984 7.61942 45.6544 8.03854C46.4312 8.56687 47.0342 9.27819 46.9287 10.1991C46.385 9.48037 45.7783 8.96385 45.1883 8.56982C44.7481 9.0037 44.2598 9.36969 43.7474 9.68993C44.3541 10.4263 44.7333 11.3251 44.2191 12.2445C43.9675 11.3251 43.5421 10.6256 43.0834 10.0722C42.338 10.4677 41.576 10.7628 40.8565 10.9812C41.2135 11.9184 41.2986 13.0208 40.309 13.8369C40.4995 12.7669 40.3516 11.8888 40.0982 11.1967C38.6721 11.5524 37.592 11.6217 37.592 11.6217C37.592 11.6217 33.0863 9.89654 26.3889 9.89654C19.6915 9.89654 15.1822 11.6217 15.1822 11.6217C15.1822 11.6217 14.0984 11.5524 12.6723 11.1952C12.4171 11.8874 12.2728 12.7654 12.4596 13.8354C11.4701 13.0193 11.5533 11.9169 11.914 10.9798C11.1945 10.7613 10.4343 10.4647 9.68521 10.0707C9.22651 10.6241 8.80111 11.3236 8.55326 12.243C8.03907 11.3236 8.41824 10.4249 9.02491 9.68846C8.51442 9.36969 8.02427 9.0037 7.58407 8.56982C6.99035 8.96238 6.38368 9.47742 5.84175 10.1976C5.73817 9.27672 6.34299 8.56539 7.11982 8.03559C6.7721 7.61942 6.46506 7.1575 6.22276 6.63656C5.46073 6.9568 4.63211 7.44085 3.84048 8.20973C3.91816 7.11766 4.91695 6.43142 5.98047 6.00345C5.79181 5.45594 5.67343 4.85382 5.62904 4.19415C4.78932 4.50111 3.83308 5.01616 2.92678 5.87653C3.03406 4.6177 4.35467 3.90933 5.5865 3.51529C5.6013 2.4793 5.78811 1.31787 6.22276 0C-6.43589 7.37887 7.6673 15.1267 7.6673 15.1267C7.6673 15.1267 1.71344 14.988 3.15798 16.8799C4.60252 18.7733 8.70678 20.4306 10.5564 20.5236C12.406 20.6151 14.7753 19.2766 14.7753 19.2766C14.7753 19.2766 15.4116 26.2865 19.5158 28.2227C18.4172 28.4072 18.0713 28.7761 18.099 29.4683C18.1268 30.1604 18.5355 31.4458 18.9092 31.4738C19.6324 30.367 22.7822 32.4892 20.7014 33.2728C22.0183 35.0083 24.8538 35.3138 26.0819 35.361C26.0819 35.3625 26.0856 35.3714 26.0856 35.3714C26.0856 35.3714 26.2095 35.3743 26.3852 35.3699C26.5591 35.3743 26.6849 35.3714 26.6849 35.3714C26.6849 35.3714 26.6886 35.3625 26.6886 35.361C27.9167 35.3138 30.7503 35.0083 32.0709 33.2728C29.9901 32.4892 33.1363 30.367 33.8632 31.4738C34.2349 31.4428 34.6437 30.1589 34.6733 29.4683C34.7047 28.7776 34.3552 28.4072 33.2565 28.2227C37.3608 26.2865 37.9952 19.2766 37.9952 19.2766C37.9952 19.2766 40.3645 20.6121 42.2141 20.5236C44.0637 20.4321 48.168 18.7704 49.6125 16.8799C51.057 14.9894 45.1013 15.1267 45.1013 15.1267ZM18.3598 24.1392C17.0596 24.6233 15.7001 22.3668 15.5281 21.0519C15.3561 19.7341 16.1644 19.5304 16.5102 19.2308C16.8561 18.9312 19.6601 23.6552 18.3598 24.1392ZM37.2405 21.0519C37.0648 22.3698 35.7091 24.6262 34.4088 24.1422C33.1104 23.6596 35.9107 18.9342 36.2584 19.2338C36.6024 19.5304 37.4126 19.7385 37.2405 21.0519Z" fill="#BA94BB"/>
</svg>
