<svg width="50" height="35" viewBox="0 0 50 35" fill="none" xmlns="http://www.w3.org/2000/svg">
<path d="M48.8634 18.986C49.6226 15.3624 47.9518 11.9554 44.3952 9.8693C42.5277 8.77456 40.3844 8.21017 38.4666 8.22233V6.39412C38.4666 1.54445 33.4466 0.727051 30.2788 0.727051C28.1537 0.727051 26.181 1.36443 24.7145 2.52606C24.7115 2.5285 24.7099 2.53093 24.7069 2.53336C23.1504 1.34862 21.0878 0.727051 19.0832 0.727051C16.9642 0.727051 14.9885 1.36443 13.522 2.52606C13.5098 2.53336 13.5006 2.54796 13.49 2.55647C11.9884 1.55662 10.1148 1.01411 8.27937 1.01411C6.15733 1.01411 4.18164 1.65149 2.71511 2.81313C1.59616 3.69986 0.260742 5.30791 0.260742 7.92067C0.260742 9.1115 1.46811 10.0749 2.96207 10.0749C4.45451 10.0749 5.66341 9.1115 5.66341 7.92067C5.66341 5.51347 7.66349 5.32615 8.27784 5.32615C9.56296 5.32615 11.063 6.00489 11.063 7.92067V26.1541C11.063 27.3449 12.2719 28.3083 13.7644 28.3083C15.2568 28.3083 16.4657 27.3437 16.4657 26.1541V7.63117C16.4657 5.22398 18.8194 5.04152 19.4658 5.04152C20.1122 5.04152 22.3272 5.17897 22.3272 7.97297C22.3272 11.4652 22.2586 26.1529 22.2586 26.1529C22.2586 27.3437 23.466 28.3071 24.9599 28.3071C26.4524 28.3071 27.6613 27.3425 27.6613 26.1529V7.63117C27.6613 5.22398 29.6614 5.03787 30.2757 5.03787C31.5608 5.03787 33.0624 5.71539 33.0624 7.63117C33.0624 7.63117 33.1402 27.3035 33.1371 28.5844C30.9419 29.611 28.8107 30.2824 27.2024 30.5257C25.7359 30.7471 24.7709 31.8722 25.0468 33.0436C25.2923 34.0775 26.4249 34.7976 27.6994 34.7976C27.8625 34.7976 28.0363 34.783 28.2025 34.7611C30.3702 34.4315 33.3886 33.49 36.4619 31.9914C39.3523 33.1725 43.3006 33.7418 45.3023 33.9705C46.7596 34.1274 48.1484 33.3173 48.3573 32.1411C48.5692 30.96 47.5447 29.8701 46.0645 29.701C44.5278 29.5234 42.9287 29.2449 41.5658 28.9383C45.0995 26.356 48.0219 23.0012 48.8634 18.986ZM38.555 25.2892C38.5581 24.3392 38.5626 23.2871 38.5687 22.1887C38.584 18.7014 38.6008 14.8053 38.6008 12.5113C39.206 12.5356 40.3478 12.7776 41.4622 13.5075C42.4713 14.168 44.0812 15.6665 43.5339 18.2732C42.9759 20.9529 41.0155 23.3418 38.555 25.2892Z" fill="#BA94BB"/>
</svg>
